<?xml version="1.0" encoding="UTF-8"?>
<svg id="LATIN" xmlns="http://www.w3.org/2000/svg" viewBox="0 0 3198.64 1135.81">
  <defs>
    <style>
      .cls-1 {
        fill: #fff;
      }
    </style>
  </defs>
  <g>
    <path class="cls-1" d="M1651.19,386.97c-101.15,0-183.14,82-183.14,183.15s82,183.14,183.14,183.14,183.14-82,183.14-183.14-82-183.15-183.14-183.15ZM1651.19,662.31c-50.92,0-92.19-41.28-92.19-92.2s41.27-92.2,92.19-92.2,92.2,41.28,92.2,92.2-41.28,92.2-92.2,92.2Z"/>
    <polygon class="cls-1" points="2403.46 607.56 2578.84 607.56 2578.84 527.18 2403.46 527.18 2403.46 473.29 2582.49 473.29 2582.49 387.43 2403.46 387.43 2312.13 387.43 2312.13 752.8 2403.46 752.8 2586.14 752.8 2586.14 666.94 2403.46 666.94 2403.46 607.56"/>
    <polygon class="cls-1" points="2969.76 387.44 2862.71 387.44 2755.67 540.3 2755.67 387.44 2664.33 387.44 2664.33 752.8 2755.67 752.8 2755.67 599.93 2862.71 752.8 2969.76 752.8 2841.84 570.12 2969.76 387.44"/>
    <path class="cls-1" d="M2007.42,473.29h91.35c25.22,0,45.67,20.45,45.67,45.67s-20.45,45.67-45.67,45.67h-91.35v-91.34ZM2230.29,518.96c0-72.64-58.88-131.53-131.53-131.53h-182.68v365.36h91.34v-111.44h49.89l78.03,111.44h107.05l-82.27-117.48c41.72-22.05,70.17-65.88,70.17-116.35"/>
    <polygon class="cls-1" points="1334.11 387.43 1227.06 540.3 1227.06 387.43 1135.73 387.43 1135.73 752.8 1227.06 752.8 1227.06 599.93 1334.11 752.8 1441.15 752.8 1313.23 570.12 1441.15 387.43 1334.11 387.43"/>
  </g>
  <g>
    <g>
      <path class="cls-1" d="M764.79,243.28c.43.52.75,1.11.96,1.79,1.25.21,2.5.34,3.76.56-1.55-.83-3.16-1.55-4.72-2.35Z"/>
      <path class="cls-1" d="M595.12,261.81c.32-.38.71-.72,1.23-.83.3-.06.55.11.83.16,29.17-9.21,60.11-16.26,92.38-18.91.46-1.26,1.48-2.28,2.9-2.57,1.75-.36,3.42.53,4.25,2.01,8.84-.54,17.78-.73,26.81-.53-1.28-.59-2.31-1.69-2.62-3.18-.51-2.49,1.1-4.92,3.58-5.42,2.49-.51,4.91,1.1,5.42,3.59.45,2.24-.85,4.35-2.91,5.13,3.74.12,7.49.3,11.26.56,0-2.31,1.52-4.39,3.87-4.87,2.68-.55,5.3,1.19,5.85,3.87.13.65.12,1.29,0,1.9,2.83.29,5.66.57,8.51.95.74-1.11,1.9-1.93,3.3-2.22.46-.09.9-.03,1.35,0-12.06-6.09-24.48-11.56-37.26-16.33-.28.12-.52.29-.82.35-2.04.42-3.98-.64-4.91-2.39-3.6-1.27-7.16-2.63-10.81-3.79-.57.53-1.23.97-2.05,1.14-2.27.46-4.44-.96-5.01-3.17-3.57-1.06-7.13-2.14-10.74-3.09-.54.56-1.2,1.02-2.02,1.19-2.07.42-4.05-.86-4.61-2.87-3.99-.98-8.02-1.83-12.06-2.68-.34.2-.7.38-1.1.47-1.5.31-2.98-.35-3.79-1.55-20.36-3.97-41.33-6.14-62.74-6.62.28.32.62.61.71,1.06.28,1.38-.61,2.72-1.99,3-1.38.28-2.72-.61-3-1.99-.17-.86.2-1.6.77-2.18-1.59-.02-3.15-.15-4.75-.15-14.29,0-28.38.85-42.24,2.44.23.23.48.47.55.81.19.94-.41,1.85-1.35,2.04-.94.19-1.85-.41-2.04-1.35-.08-.41.04-.8.22-1.14-21.55,2.62-42.5,7.14-62.74,13.32.27.06.57.13.62.41.08.39-.17.78-.57.86-.39.08-.78-.17-.86-.57-.05-.26.19-.41.38-.57-16.1,4.93-31.79,10.81-46.89,17.79-19.95,10.2-38.28,35.75-22,56.91,9.91,12.88,46.84,19.35,131.49-14.51,14.63-5.85,29.86-11.45,45.59-16.48ZM706.84,228.05c2.34-.48,4.62,1.04,5.1,3.37.48,2.34-1.04,4.62-3.37,5.09-2.34.48-4.62-1.03-5.1-3.37-.48-2.34,1.03-4.62,3.37-5.1ZM689.19,223.59c2.17-.44,4.28.96,4.72,3.13.44,2.17-.96,4.28-3.13,4.72-2.17.44-4.28-.96-4.72-3.12-.44-2.17.96-4.28,3.12-4.72ZM679.16,238.09c.41,1.99-.88,3.94-2.88,4.34-1.99.41-3.94-.88-4.34-2.88-.41-2,.88-3.94,2.88-4.35,1.99-.41,3.94.88,4.35,2.88ZM671.54,219.13c1.99-.41,3.94.88,4.35,2.88.41,1.99-.88,3.94-2.88,4.34-1.99.41-3.94-.88-4.35-2.88-.41-2,.88-3.94,2.88-4.35ZM661.18,233.37c.38,1.84-.82,3.65-2.66,4.02-1.85.38-3.65-.82-4.02-2.66-.38-1.85.82-3.65,2.66-4.02,1.85-.38,3.65.82,4.02,2.66ZM653.89,214.63c1.85-.38,3.65.82,4.02,2.66.38,1.84-.82,3.65-2.66,4.02-1.85.38-3.65-.82-4.02-2.66-.38-1.85.82-3.65,2.66-4.02ZM646.43,244.74c.34,1.67-.74,3.31-2.41,3.65-1.67.34-3.31-.74-3.65-2.41-.34-1.67.74-3.31,2.41-3.65,1.67-.34,3.31.74,3.65,2.42ZM643.16,228.67c.34,1.67-.74,3.31-2.41,3.65-1.67.34-3.31-.74-3.65-2.41-.34-1.67.74-3.31,2.41-3.65,1.67-.34,3.31.74,3.65,2.42ZM636.24,210.18c1.67-.34,3.31.74,3.65,2.41.34,1.67-.74,3.31-2.41,3.65-1.67.34-3.31-.74-3.65-2.41-.34-1.67.74-3.31,2.41-3.65ZM628.45,240.03c.31,1.52-.68,3.01-2.2,3.32-1.53.31-3.02-.68-3.33-2.2-.31-1.53.67-3.02,2.2-3.33,1.53-.31,3.02.67,3.33,2.2ZM625.18,223.96c.31,1.52-.68,3.01-2.2,3.32-1.53.31-3.02-.67-3.33-2.2-.31-1.53.67-3.02,2.2-3.33,1.53-.31,3.02.67,3.33,2.2ZM618.58,205.68c1.53-.31,3.02.67,3.33,2.2.31,1.53-.67,3.02-2.2,3.33-1.53.31-3.02-.68-3.33-2.2-.31-1.53.67-3.02,2.2-3.33ZM613.74,251.39c.28,1.38-.61,2.72-1.99,3-1.38.28-2.72-.61-3-1.99-.28-1.38.61-2.73,1.99-3.01,1.38-.28,2.72.61,3,1.99ZM610.47,235.32c.28,1.38-.61,2.72-1.99,3-1.38.28-2.72-.61-3-1.99-.28-1.38.61-2.73,1.99-3.01,1.38-.28,2.72.61,3,1.99ZM604.2,217.25c1.38-.28,2.72.61,3,1.99.28,1.38-.61,2.72-1.99,3-1.38.28-2.72-.61-3-1.99-.28-1.38.61-2.72,1.99-3ZM595.76,246.68c.25,1.23-.54,2.43-1.78,2.68-1.23.25-2.43-.55-2.68-1.77-.25-1.23.54-2.43,1.77-2.68,1.23-.25,2.43.54,2.68,1.78ZM592.49,230.6c.25,1.23-.54,2.43-1.78,2.68-1.23.25-2.43-.54-2.68-1.77-.25-1.23.54-2.43,1.77-2.68,1.23-.25,2.43.55,2.68,1.78ZM586.54,212.75c1.23-.25,2.43.55,2.68,1.78.25,1.23-.54,2.43-1.78,2.68-1.23.25-2.43-.54-2.68-1.77-.25-1.23.54-2.43,1.77-2.68ZM581.06,258.04c.22,1.08-.48,2.14-1.56,2.36-1.08.22-2.14-.48-2.36-1.56-.22-1.09.48-2.14,1.56-2.36,1.08-.22,2.14.48,2.36,1.56ZM577.79,241.97c.22,1.08-.48,2.14-1.56,2.36-1.08.22-2.14-.48-2.36-1.56-.22-1.09.48-2.14,1.56-2.36,1.08-.22,2.14.48,2.36,1.56ZM574.52,225.89c.22,1.08-.48,2.14-1.56,2.36-1.08.22-2.14-.48-2.36-1.56-.22-1.09.48-2.14,1.56-2.36,1.08-.22,2.14.48,2.36,1.56ZM568.89,208.25c1.08-.22,2.14.48,2.36,1.56.22,1.08-.48,2.14-1.56,2.36-1.08.22-2.14-.48-2.36-1.56-.22-1.09.48-2.14,1.56-2.36ZM564.31,268.05c.94-.19,1.85.41,2.04,1.35.19.93-.41,1.85-1.35,2.04-.94.19-1.85-.41-2.04-1.35-.19-.94.41-1.85,1.35-2.04ZM561.04,251.98c.94-.19,1.85.41,2.04,1.35.19.93-.41,1.85-1.35,2.04-.94.19-1.85-.41-2.04-1.35-.19-.94.41-1.85,1.35-2.04ZM557.77,235.9c.94-.19,1.85.41,2.04,1.35.19.93-.41,1.85-1.35,2.04-.94.19-1.85-.41-2.04-1.35-.19-.94.41-1.85,1.35-2.04ZM554.5,219.83c.94-.19,1.85.41,2.04,1.35.19.93-.41,1.85-1.35,2.04-.94.19-1.85-.41-2.04-1.35-.19-.94.41-1.85,1.35-2.04ZM440.7,236.46s-.1-.02-.11-.07c-.01-.05.02-.1.07-.11.05,0,.1.02.11.07,0,.05-.02.1-.07.11ZM443.97,252.54s-.1-.02-.11-.07c0-.05.02-.1.07-.11.05,0,.1.02.11.07,0,.05-.02.1-.07.11ZM447.24,268.61s-.1-.02-.11-.07c-.01-.05.02-.1.07-.11.05-.01.1.02.11.07,0,.05-.02.1-.07.11ZM450.51,284.69s-.1-.02-.11-.07c-.01-.05.02-.1.07-.11.05-.01.1.02.11.07,0,.05-.02.1-.07.11ZM453.78,300.76s-.1-.02-.11-.07c0-.05.02-.1.07-.11.05,0,.1.02.11.07s-.02.1-.07.11ZM458.44,241.41c-.15.03-.29-.07-.32-.21-.03-.15.07-.29.21-.32.15-.03.29.07.32.21.03.15-.07.29-.21.32ZM461.71,257.48c-.15.03-.29-.06-.32-.21-.03-.15.07-.29.21-.32.15-.03.29.07.32.21.03.15-.07.29-.21.32ZM464.98,273.56c-.15.03-.29-.06-.32-.21-.03-.15.07-.29.21-.32.15-.03.29.07.32.21.03.15-.07.29-.21.32ZM468.25,289.64c-.15.03-.29-.07-.32-.21-.03-.15.07-.29.21-.32.15-.03.29.06.32.21.03.15-.07.29-.21.32ZM472.93,230.32c-.27.06-.53-.12-.59-.39-.06-.27.12-.54.39-.59.27-.06.54.12.59.39.06.27-.12.53-.39.59ZM476.2,246.4c-.27.06-.53-.12-.59-.39-.06-.27.12-.54.39-.59.27-.06.54.12.59.39.06.27-.12.53-.39.59ZM479.47,262.48c-.27.06-.53-.12-.59-.39-.06-.27.12-.54.39-.59.27-.06.54.12.59.39.05.27-.12.53-.39.59ZM482.74,278.55c-.27.06-.53-.12-.59-.39-.06-.27.12-.54.39-.59.27-.06.54.12.59.39.05.27-.12.53-.39.59ZM486.01,294.63c-.27.06-.53-.12-.59-.39-.06-.27.12-.54.39-.59.27-.06.54.12.59.39.06.27-.12.54-.39.59ZM490.69,235.31c-.39.08-.78-.17-.86-.57-.08-.39.17-.78.57-.86.39-.08.78.17.86.57.08.39-.17.78-.57.86ZM493.96,251.39c-.4.08-.78-.17-.86-.57-.08-.39.17-.78.57-.86.39-.08.78.17.86.57.08.39-.17.78-.57.86ZM497.23,267.47c-.39.08-.78-.17-.86-.57-.08-.4.17-.78.57-.86.39-.08.78.17.86.57.08.39-.18.78-.57.86ZM500.5,283.54c-.39.08-.78-.17-.86-.57-.08-.4.17-.78.57-.86.39-.08.78.17.86.57.08.39-.18.78-.57.86ZM505.17,224.23c-.52.11-1.02-.23-1.13-.74-.11-.52.23-1.02.75-1.13.52-.11,1.02.23,1.13.75.11.52-.23,1.02-.75,1.12ZM508.44,240.3c-.52.11-1.02-.23-1.13-.74-.11-.52.23-1.02.75-1.13.52-.11,1.02.23,1.13.75.11.52-.23,1.02-.75,1.12ZM511.71,256.38c-.52.11-1.02-.23-1.13-.74-.11-.52.23-1.02.75-1.13s1.02.23,1.13.75c.11.52-.23,1.02-.75,1.12ZM514.98,272.46c-.52.11-1.02-.23-1.13-.74-.11-.52.23-1.02.75-1.13.52-.11,1.02.23,1.13.75.1.52-.23,1.02-.75,1.12ZM518.25,288.53c-.52.11-1.02-.23-1.13-.75s.23-1.02.75-1.13c.52-.11,1.02.23,1.13.75.11.52-.23,1.02-.75,1.13ZM519.67,213.19c-.66.13-1.31-.29-1.45-.96-.14-.67.29-1.31.96-1.45.66-.13,1.31.29,1.45.96.14.66-.29,1.31-.96,1.45ZM522.94,229.27c-.66.13-1.31-.29-1.45-.96-.14-.67.29-1.31.96-1.45s1.31.29,1.45.96c.14.66-.29,1.31-.96,1.45ZM526.21,245.34c-.66.13-1.31-.29-1.45-.96-.14-.67.29-1.31.96-1.45.67-.13,1.31.29,1.45.96.13.66-.29,1.31-.96,1.45ZM529.48,261.42c-.66.13-1.31-.29-1.45-.96-.14-.67.29-1.31.96-1.45.66-.13,1.31.29,1.45.96.13.67-.29,1.31-.96,1.45ZM532.75,277.49c-.66.13-1.31-.29-1.45-.96-.14-.67.29-1.31.96-1.45s1.31.29,1.45.96c.13.67-.29,1.31-.96,1.45ZM537.42,218.18c-.79.16-1.55-.35-1.72-1.14-.16-.79.35-1.56,1.14-1.72.79-.16,1.56.35,1.72,1.14.16.79-.35,1.56-1.14,1.72ZM540.69,234.26c-.79.16-1.56-.35-1.72-1.14-.16-.79.35-1.56,1.14-1.72.79-.16,1.56.35,1.72,1.14.16.79-.35,1.56-1.14,1.72ZM543.96,250.33c-.79.16-1.56-.35-1.72-1.14-.16-.79.35-1.56,1.14-1.72s1.56.35,1.72,1.14c.16.79-.35,1.56-1.14,1.72ZM547.23,266.4c-.79.16-1.55-.35-1.71-1.13-.16-.79.35-1.56,1.14-1.72.79-.16,1.56.35,1.72,1.14.16.79-.35,1.55-1.14,1.71Z"/>
    </g>
    <path class="cls-1" d="M603.68,387.67c-.03-.09-.13-.13-.15-.22-.22-1.09.48-2.14,1.56-2.36.85-.17,1.56.31,1.99,1.01,14.63-6.63,28.8-12.43,42.45-17.43.23-1.06.86-2,1.99-2.23.89-.18,1.68.16,2.32.71,14.66-5.24,28.79-9.67,42.25-13.26-.48-.49-.88-1.07-1.03-1.8-.41-2,.88-3.94,2.88-4.35,1.99-.41,3.94.88,4.35,2.88.12.61.05,1.19-.11,1.75,8.53-2.16,16.85-4.06,24.87-5.63-.17-.34-.37-.67-.45-1.06-.48-2.34,1.03-4.62,3.37-5.1,2.34-.48,4.62,1.04,5.1,3.37.09.45.05.88,0,1.31,8.45-1.5,16.58-2.69,24.41-3.62-.63-.66-1.15-1.43-1.35-2.39-.55-2.68,1.19-5.3,3.87-5.85,2.68-.55,5.3,1.19,5.85,3.87.25,1.25-.02,2.46-.62,3.48,3.16-.31,6.23-.56,9.28-.79.74-1.02,1.82-1.79,3.15-2.06,1.82-.37,3.55.32,4.75,1.57,8.16-.44,15.89-.6,23.19-.53-.2-.42-.44-.8-.54-1.27-.65-3.2,1.42-6.32,4.62-6.98,3.2-.65,6.32,1.42,6.97,4.62.28,1.39-.02,2.73-.64,3.89,2.27.09,4.52.2,6.69.33.63-2.12,2.31-3.87,4.63-4.34,3.35-.68,6.61,1.48,7.3,4.83.03.17-.02.32,0,.49,2.49.25,4.91.52,7.25.82.86-.81,1.86-1.47,3.1-1.72,2.82-.57,5.53.81,6.9,3.17,3.44.56,6.72,1.15,9.73,1.77.35-.13.65-.36,1.03-.43,2.37-.48,4.62.42,6.19,2.04,4.02.96,7.5,1.9,10.47,2.79.34-.12.62-.34.98-.42,2.99-.61,5.89.76,7.45,3.18,2.29.84,3.54,1.39,3.69,1.46-.02-.03-.05-.07-.07-.1-2.89-2.74-5.87-5.11-8.8-7.68-.78.54-1.67.95-2.67,1.15-3.89.79-7.68-1.72-8.48-5.61-.33-1.6.02-3.14.68-4.51-1.6-1.27-3.25-2.33-4.87-3.55.05.18.17.31.21.49.75,3.69-1.63,7.29-5.33,8.05-3.69.75-7.3-1.63-8.05-5.32-.75-3.7,1.63-7.3,5.33-8.05.41-.08.8,0,1.2,0-1.24-.87-2.46-1.85-3.71-2.7-2.27-.21-4.24-1.5-5.32-3.51-2.2-1.42-4.44-2.66-6.67-3.99-.93,1.2-2.22,2.14-3.82,2.46-3.54.72-7-1.57-7.72-5.11-.27-1.35,0-2.63.5-3.81-1.89-1-3.82-1.81-5.72-2.76.25,3.07-1.73,5.93-4.83,6.56-3.35.68-6.61-1.48-7.3-4.83-.51-2.51.58-4.98,2.57-6.34-3.55-1.58-7.13-2.96-10.71-4.35,1.12.84,1.98,2.03,2.28,3.51.65,3.2-1.42,6.32-4.62,6.97-3.2.65-6.32-1.42-6.97-4.62-.65-3.2,1.42-6.32,4.62-6.98.59-.12,1.17-.06,1.74,0-21.94-8.18-44.45-13.06-67.23-14.97.11.26.27.49.33.78.51,2.49-1.1,4.91-3.59,5.42-2.49.51-4.91-1.1-5.42-3.59-.23-1.13.02-2.23.55-3.16-3.35-.18-6.71-.28-10.07-.34-.6,1.01-1.58,1.8-2.82,2.05-1.91.39-3.73-.59-4.61-2.22-8.82.05-17.65.6-26.49,1.4.84.52,1.49,1.35,1.7,2.39.41,1.99-.88,3.94-2.88,4.35-1.99.41-3.94-.88-4.35-2.88-.27-1.32.25-2.57,1.18-3.42-31.16,3.23-62.29,10.66-92.54,21.19.18.23.42.41.48.72.22,1.08-.48,2.14-1.56,2.36-1.08.22-2.14-.48-2.36-1.56-.02-.09.06-.17.05-.26-5.65,2.01-11.3,4.07-16.88,6.28-9.47,3.74-18.48,7.15-27.24,10.38.32.17.57.43.65.8.13.67-.29,1.31-.96,1.45-.66.13-1.31-.29-1.45-.96-.05-.25.04-.48.13-.69-80.84,29.63-131.61,36.8-157.91,14.79-29.3-24.51,6.5-74.81,6.55-74.88,0,0-.01,0-.02.01-107.58,75.61-135.92,167.6-91.85,205.16,36.31,30.94,94.87,33.24,256.78-56.82,16.77-9.33,32.95-17.43,48.65-24.65ZM843.68,323.54c3.55-.72,7,1.57,7.73,5.12.72,3.54-1.57,7-5.11,7.72-3.55.72-7-1.57-7.72-5.11-.72-3.55,1.57-7.01,5.11-7.73ZM826.04,319.13c3.35-.68,6.61,1.48,7.3,4.83.68,3.35-1.48,6.61-4.83,7.29-3.35.68-6.61-1.48-7.3-4.83-.68-3.35,1.48-6.62,4.83-7.3ZM808.39,314.63c3.2-.65,6.32,1.42,6.97,4.62.65,3.2-1.42,6.32-4.62,6.97-3.2.65-6.32-1.42-6.97-4.62-.65-3.2,1.42-6.32,4.62-6.98ZM746.18,338c-2.49.51-4.91-1.1-5.42-3.59-.51-2.49,1.1-4.91,3.59-5.42,2.49-.51,4.91,1.1,5.42,3.59.51,2.49-1.1,4.91-3.59,5.42ZM800.56,330.62c.61,3-1.33,5.93-4.33,6.54-3,.61-5.93-1.33-6.54-4.33-.61-3,1.33-5.93,4.33-6.55,3-.61,5.93,1.33,6.54,4.33ZM797.29,314.55c.61,3-1.33,5.93-4.33,6.54-3,.61-5.93-1.33-6.54-4.33-.61-3,1.33-5.93,4.33-6.55,3-.61,5.93,1.33,6.54,4.33ZM787.48,294.14c3-.61,5.93,1.33,6.54,4.33.61,3-1.33,5.93-4.33,6.54-3,.61-5.93-1.33-6.54-4.33-.61-3,1.33-5.93,4.33-6.55ZM782.54,325.92c.58,2.83-1.25,5.59-4.08,6.17-2.83.58-5.59-1.25-6.17-4.08-.58-2.83,1.25-5.59,4.08-6.17,2.83-.58,5.59,1.25,6.17,4.09ZM779.27,309.84c.58,2.83-1.25,5.59-4.08,6.17-2.83.58-5.59-1.25-6.17-4.08-.58-2.83,1.25-5.6,4.08-6.17,2.83-.58,5.59,1.25,6.17,4.09ZM769.83,289.68c2.83-.58,5.59,1.25,6.17,4.09.58,2.83-1.25,5.59-4.08,6.17-2.83.58-5.59-1.25-6.17-4.08-.58-2.83,1.25-5.59,4.08-6.17ZM764.56,321.21c.55,2.68-1.19,5.3-3.87,5.85-2.68.55-5.3-1.19-5.85-3.87-.55-2.68,1.19-5.3,3.87-5.85,2.68-.55,5.3,1.19,5.85,3.87ZM761.29,305.13c.55,2.68-1.19,5.3-3.87,5.85s-5.3-1.19-5.85-3.87c-.55-2.68,1.19-5.3,3.87-5.85,2.68-.55,5.3,1.19,5.85,3.87ZM752.18,285.18c2.68-.55,5.3,1.19,5.85,3.87.55,2.68-1.19,5.3-3.87,5.85-2.68.55-5.3-1.19-5.85-3.87-.55-2.68,1.19-5.3,3.87-5.85ZM746.5,316.51c.51,2.49-1.1,4.91-3.59,5.42-2.49.51-4.91-1.1-5.42-3.59-.51-2.49,1.1-4.91,3.59-5.42,2.49-.51,4.91,1.1,5.42,3.59ZM737.81,296.85c2.49-.51,4.91,1.1,5.42,3.59.51,2.49-1.1,4.91-3.59,5.42-2.49.51-4.91-1.1-5.42-3.59-.51-2.49,1.1-4.91,3.59-5.42ZM731.79,327.87c.48,2.34-1.04,4.62-3.37,5.09-2.34.48-4.62-1.03-5.1-3.37-.48-2.34,1.03-4.62,3.37-5.1,2.34-.48,4.62,1.04,5.1,3.37ZM728.52,311.8c.48,2.34-1.03,4.62-3.37,5.1-2.34.48-4.62-1.04-5.1-3.37-.48-2.34,1.03-4.62,3.37-5.1,2.34-.48,4.62,1.03,5.1,3.37ZM720.15,292.35c2.34-.48,4.62,1.03,5.1,3.37.48,2.34-1.03,4.62-3.37,5.1-2.34.48-4.62-1.04-5.1-3.37-.48-2.34,1.03-4.62,3.37-5.1ZM717.04,339.24c.44,2.17-.96,4.28-3.12,4.72-2.17.44-4.28-.96-4.72-3.12-.44-2.17.96-4.28,3.12-4.72s4.28.96,4.72,3.13ZM713.77,323.17c.44,2.17-.96,4.28-3.12,4.72-2.17.44-4.28-.96-4.72-3.12-.44-2.17.96-4.28,3.12-4.72,2.17-.44,4.28.96,4.72,3.13ZM710.5,307.09c.44,2.17-.96,4.28-3.13,4.72-2.17.44-4.28-.96-4.72-3.12-.44-2.17.96-4.28,3.12-4.72,2.17-.44,4.28.96,4.72,3.13ZM702.51,287.89c2.17-.44,4.28.96,4.72,3.13.44,2.17-.96,4.28-3.13,4.72-2.17.44-4.28-.96-4.72-3.12-.44-2.17.96-4.28,3.12-4.72ZM699.01,334.54c.4,1.99-.88,3.94-2.88,4.34s-3.94-.88-4.34-2.88c-.41-2,.88-3.94,2.88-4.35,1.99-.41,3.94.88,4.35,2.88ZM695.74,318.46c.41,1.99-.88,3.94-2.88,4.35-1.99.41-3.94-.88-4.35-2.88-.41-2,.88-3.94,2.88-4.35,1.99-.41,3.94.88,4.35,2.88ZM688.13,299.51c1.99-.41,3.94.88,4.35,2.88.41,1.99-.88,3.94-2.88,4.35-1.99.41-3.94-.88-4.35-2.88-.41-2,.88-3.94,2.88-4.35ZM620.38,377.97c-1.23.25-2.43-.55-2.68-1.77-.25-1.23.54-2.43,1.77-2.68,1.23-.25,2.43.54,2.68,1.78.25,1.23-.54,2.43-1.78,2.68ZM667.14,360.92c-1.67.34-3.31-.74-3.65-2.41-.34-1.67.74-3.31,2.41-3.65,1.67-.34,3.31.74,3.65,2.42.34,1.67-.74,3.31-2.41,3.65ZM684.31,345.9c.38,1.84-.82,3.65-2.66,4.02-1.85.38-3.65-.82-4.02-2.66-.38-1.85.82-3.65,2.66-4.02,1.85-.38,3.65.82,4.02,2.66ZM681.04,329.83c.38,1.84-.82,3.65-2.66,4.02-1.85.38-3.65-.82-4.02-2.66-.38-1.85.82-3.65,2.66-4.02,1.85-.38,3.65.82,4.02,2.66ZM677.77,313.75c.38,1.85-.82,3.65-2.66,4.02-1.85.38-3.65-.82-4.02-2.66-.38-1.85.82-3.65,2.66-4.02,1.85-.38,3.65.82,4.02,2.66ZM670.47,295.01c1.85-.38,3.65.82,4.02,2.66.38,1.85-.82,3.65-2.66,4.02-1.85.38-3.65-.82-4.02-2.66-.38-1.85.82-3.65,2.66-4.02ZM666.28,341.2c.34,1.67-.74,3.31-2.41,3.65-1.67.34-3.31-.74-3.65-2.41-.34-1.67.74-3.31,2.41-3.65,1.67-.34,3.31.74,3.65,2.42ZM663.01,325.12c.34,1.67-.74,3.31-2.41,3.65-1.67.34-3.31-.74-3.65-2.41-.34-1.67.74-3.31,2.41-3.65,1.67-.34,3.31.74,3.65,2.41ZM659.74,309.05c.34,1.67-.74,3.31-2.41,3.65-1.67.34-3.31-.74-3.65-2.41-.34-1.67.74-3.31,2.41-3.65,1.67-.34,3.31.74,3.65,2.41ZM652.83,290.56c1.67-.34,3.31.74,3.65,2.41.34,1.67-.74,3.31-2.41,3.65-1.67.34-3.31-.74-3.65-2.41-.34-1.67.74-3.31,2.41-3.65ZM651.57,352.56c.31,1.52-.67,3.02-2.2,3.33-1.53.31-3.02-.68-3.33-2.2-.31-1.53.67-3.02,2.2-3.33,1.53-.31,3.02.67,3.33,2.2ZM648.3,336.48c.31,1.52-.67,3.02-2.2,3.33-1.53.31-3.02-.68-3.33-2.2-.31-1.53.67-3.02,2.2-3.33,1.53-.31,3.02.67,3.33,2.2ZM645.03,320.41c.31,1.53-.67,3.02-2.2,3.33-1.53.31-3.02-.68-3.33-2.2-.31-1.53.67-3.02,2.2-3.33,1.53-.31,3.01.67,3.33,2.2ZM638.44,302.13c1.53-.31,3.02.67,3.33,2.2.31,1.53-.67,3.02-2.2,3.33-1.53.31-3.02-.68-3.33-2.2-.31-1.53.67-3.02,2.2-3.33ZM636.87,363.92c.28,1.38-.61,2.72-1.99,3-1.38.28-2.72-.61-3-1.99-.28-1.38.61-2.73,1.99-3.01,1.38-.28,2.72.61,3,1.99ZM633.6,347.85c.28,1.38-.61,2.72-1.99,3-1.38.28-2.72-.61-3-1.99-.28-1.38.61-2.72,1.99-3,1.38-.28,2.72.61,3,1.99ZM630.33,331.77c.28,1.38-.61,2.72-1.99,3-1.38.28-2.72-.61-3-1.99-.28-1.38.61-2.72,1.99-3,1.38-.28,2.72.61,3,1.99ZM627.06,315.7c.28,1.38-.61,2.72-1.99,3-1.38.28-2.72-.61-3-1.99-.28-1.38.61-2.73,1.99-3.01,1.38-.28,2.72.61,3,1.99ZM620.78,297.63c1.38-.28,2.72.61,3,1.99.28,1.38-.61,2.72-1.99,3-1.38.28-2.72-.61-3-1.99-.28-1.38.61-2.73,1.99-3.01ZM618.89,359.21c.25,1.23-.54,2.43-1.78,2.68-1.23.25-2.43-.55-2.68-1.77-.25-1.23.54-2.43,1.77-2.68,1.23-.25,2.43.55,2.68,1.78ZM615.62,343.13c.25,1.23-.54,2.43-1.77,2.68-1.23.25-2.43-.55-2.68-1.77-.25-1.23.54-2.43,1.77-2.68,1.23-.25,2.43.55,2.68,1.78ZM612.35,327.06c.25,1.23-.54,2.43-1.77,2.68-1.23.25-2.43-.55-2.68-1.77-.25-1.23.55-2.43,1.77-2.68,1.23-.25,2.43.54,2.68,1.77ZM606.4,309.21c1.23-.25,2.43.54,2.68,1.78.25,1.23-.54,2.43-1.78,2.68-1.23.25-2.43-.55-2.68-1.78-.25-1.23.55-2.43,1.78-2.68ZM604.18,370.57c.22,1.08-.48,2.14-1.56,2.36-1.08.22-2.14-.48-2.36-1.56-.22-1.09.48-2.14,1.56-2.36,1.08-.22,2.14.48,2.36,1.56ZM600.91,354.5c.22,1.08-.48,2.14-1.56,2.36-1.08.22-2.14-.48-2.36-1.56-.22-1.09.48-2.14,1.56-2.36,1.08-.22,2.14.48,2.36,1.56ZM597.64,338.42c.22,1.08-.48,2.14-1.56,2.36-1.08.22-2.14-.48-2.36-1.56-.22-1.09.48-2.14,1.56-2.36,1.08-.22,2.14.48,2.36,1.56ZM592.01,320.78c1.08-.22,2.14.48,2.36,1.56.22,1.08-.48,2.14-1.56,2.36-1.08.22-2.14-.48-2.36-1.56-.22-1.08.48-2.14,1.56-2.36ZM463.82,348.99s-.1-.02-.11-.07c-.01-.05.02-.1.07-.11s.1.02.11.07c0,.05-.02.1-.07.11ZM467.09,365.07s-.1-.02-.11-.07c-.01-.05.02-.1.07-.11.05,0,.1.02.11.07.01.05-.02.1-.07.11ZM470.36,381.14s-.1-.02-.11-.07c-.01-.05.02-.1.07-.11.05,0,.1.02.11.07.01.05-.02.1-.07.11ZM473.63,397.22s-.1-.02-.11-.07c-.01-.05.02-.1.07-.11.05-.01.1.02.11.07,0,.05-.02.1-.07.11ZM476.9,413.29s-.1-.02-.11-.07c0-.05.02-.1.07-.11.05-.01.1.02.11.07,0,.05-.02.1-.07.11ZM480.17,429.37s-.1-.02-.11-.07c-.01-.05.02-.1.07-.11s.1.02.11.07c0,.05-.02.1-.07.11ZM481.57,353.94c-.15.03-.29-.07-.32-.21-.03-.15.07-.29.21-.32.15-.03.29.07.32.21.03.15-.07.29-.21.32ZM483.44,445.45s-.1-.02-.11-.07c0-.05.02-.1.07-.11s.1.02.11.07c0,.05-.02.1-.07.11ZM484.84,370.01c-.15.03-.29-.06-.32-.21-.03-.15.07-.29.21-.32.15-.03.29.07.32.21.03.15-.07.29-.21.32ZM488.11,386.09c-.15.03-.29-.06-.32-.21-.03-.15.07-.29.21-.32.15-.03.29.07.32.21.03.15-.07.29-.21.32ZM491.38,402.16c-.15.03-.29-.06-.32-.21-.03-.15.07-.29.21-.32.15-.03.29.07.32.21.03.15-.07.29-.21.32ZM494.65,418.24c-.15.03-.29-.07-.32-.21-.03-.15.07-.29.21-.32.15-.03.29.07.32.21.03.15-.07.29-.21.32ZM496.05,342.85c-.27.06-.53-.12-.59-.39-.06-.27.12-.54.39-.59s.53.12.59.39c.06.27-.12.53-.39.59ZM497.92,434.32c-.15.03-.29-.07-.32-.21-.03-.15.06-.29.21-.32.15-.03.29.06.32.21.03.14-.07.29-.21.32ZM499.32,358.93c-.27.06-.53-.12-.59-.39-.06-.27.12-.54.39-.59.27-.06.54.12.59.39.06.27-.12.53-.39.59ZM502.6,375c-.27.06-.53-.12-.59-.39-.06-.27.12-.54.39-.59.27-.06.54.12.59.39.06.27-.12.53-.39.59ZM505.87,391.08c-.27.06-.53-.12-.59-.39-.06-.27.12-.54.39-.59.27-.06.54.12.59.39.05.27-.12.53-.39.59ZM509.13,407.16c-.27.06-.53-.12-.59-.39-.06-.27.12-.54.39-.59.27-.06.54.12.59.39.05.27-.12.53-.39.59ZM512.41,423.23c-.27.06-.53-.12-.59-.39-.06-.27.12-.54.39-.59.27-.06.54.12.59.39.05.27-.12.53-.39.59ZM513.81,347.84c-.39.08-.78-.17-.86-.57-.08-.39.17-.78.57-.86.39-.08.78.17.86.57.08.39-.18.78-.57.86ZM517.08,363.92c-.39.08-.78-.17-.86-.57-.08-.39.17-.78.57-.86.39-.08.78.17.86.57.08.39-.18.78-.57.86ZM520.35,379.99c-.39.08-.78-.17-.86-.57-.08-.39.17-.78.57-.86.39-.08.78.17.86.57.08.39-.17.78-.57.86ZM523.62,396.07c-.39.08-.78-.17-.86-.57-.08-.39.17-.78.57-.86.39-.08.78.18.86.57.08.39-.17.78-.57.86ZM526.89,412.14c-.39.08-.78-.17-.86-.57-.08-.4.17-.78.57-.86.39-.08.78.17.86.57.08.39-.18.78-.57.86ZM528.3,336.76c-.52.11-1.02-.23-1.13-.75-.11-.52.23-1.02.75-1.13.52-.11,1.02.23,1.13.75.11.52-.23,1.02-.75,1.13ZM531.57,352.83c-.52.11-1.02-.23-1.13-.75-.11-.52.23-1.02.75-1.13.52-.11,1.02.23,1.13.75.11.52-.23,1.02-.75,1.13ZM534.84,368.91c-.52.11-1.02-.23-1.13-.74-.11-.52.23-1.02.75-1.13.52-.11,1.02.23,1.13.75.11.52-.23,1.02-.75,1.12ZM538.11,384.98c-.52.11-1.02-.23-1.13-.74-.11-.52.23-1.02.75-1.13.52-.11,1.02.23,1.13.75.11.52-.23,1.02-.75,1.12ZM541.38,401.06c-.52.11-1.02-.23-1.13-.74-.11-.52.23-1.02.75-1.13.52-.11,1.02.23,1.13.75.1.51-.23,1.02-.75,1.12ZM587.43,380.58c.94-.19,1.85.41,2.04,1.35.19.93-.41,1.85-1.35,2.04s-1.85-.41-2.04-1.35c-.19-.94.41-1.85,1.35-2.04ZM584.16,364.51c.94-.19,1.85.41,2.04,1.35.19.93-.41,1.85-1.35,2.04-.94.19-1.85-.41-2.04-1.35-.19-.94.41-1.85,1.35-2.04ZM580.89,348.43c.94-.19,1.85.41,2.04,1.35.19.94-.41,1.85-1.35,2.04-.94.19-1.85-.41-2.04-1.35-.19-.94.41-1.85,1.35-2.04ZM577.62,332.36c.94-.19,1.85.41,2.04,1.35.19.94-.41,1.85-1.35,2.04-.94.19-1.85-.41-2.04-1.35-.19-.94.41-1.85,1.35-2.04ZM574.35,316.28c.94-.19,1.85.41,2.04,1.35.19.94-.41,1.85-1.35,2.04-.94.19-1.85-.41-2.04-1.35-.19-.94.41-1.85,1.35-2.04ZM573.05,392.16c.79-.16,1.56.35,1.72,1.14.16.79-.35,1.55-1.14,1.71-.79.16-1.56-.35-1.72-1.13-.16-.79.35-1.56,1.14-1.72ZM569.78,376.08c.79-.16,1.56.35,1.72,1.14.16.79-.35,1.55-1.14,1.71-.79.16-1.56-.35-1.72-1.13-.16-.79.35-1.56,1.14-1.72ZM566.51,360.01c.79-.16,1.56.35,1.72,1.14.16.79-.35,1.56-1.14,1.72-.79.16-1.56-.35-1.72-1.14-.16-.79.35-1.56,1.14-1.72ZM563.24,343.93c.79-.16,1.56.35,1.72,1.14.16.79-.35,1.55-1.14,1.72-.79.16-1.56-.35-1.72-1.14-.16-.79.35-1.56,1.14-1.72ZM559.97,327.86c.79-.16,1.56.35,1.72,1.14.16.79-.35,1.55-1.14,1.72-.79.16-1.55-.35-1.72-1.14-.16-.79.35-1.56,1.14-1.72ZM558.65,403.69c.66-.13,1.31.29,1.45.96.13.66-.29,1.31-.96,1.45-.66.13-1.31-.3-1.45-.96-.13-.67.29-1.31.96-1.45ZM544.65,417.14c-.52.11-1.02-.23-1.13-.74-.11-.52.23-1.02.75-1.13.52-.11,1.02.23,1.13.75.1.51-.23,1.02-.75,1.12ZM546.06,341.79c-.66.14-1.31-.29-1.45-.96-.14-.67.29-1.31.96-1.45.66-.13,1.31.29,1.45.96.13.66-.29,1.31-.96,1.45ZM549.33,357.87c-.66.13-1.31-.29-1.45-.96-.14-.67.29-1.31.96-1.45.66-.13,1.31.29,1.45.96.13.66-.29,1.31-.96,1.45ZM552.6,373.95c-.66.13-1.31-.29-1.45-.96-.14-.67.29-1.31.96-1.45.66-.13,1.31.29,1.45.96.14.66-.29,1.31-.96,1.45ZM554.42,389.06c-.14-.67.29-1.31.96-1.45.66-.13,1.31.29,1.45.96.14.67-.29,1.31-.96,1.45-.66.13-1.31-.29-1.45-.96Z"/>
    <g>
      <path class="cls-1" d="M949.07,502.11c2.69.18,5.02,1.68,6.29,4.06,2.32,1.61,3.74,2.72,4.12,3.03-.01-.09-.03-.18-.05-.27-.78-1.78-1.65-3.38-2.45-5.11-.93-1.05-1.7-2.25-2-3.72-.03-.16.02-.3,0-.45-.69-1.42-1.35-2.91-2.06-4.29-.6,2.74-2.68,4.95-5.49,5.77.57.34,1.11.66,1.64.98Z"/>
      <path class="cls-1" d="M576.25,577.15c-.11-.52.23-1.02.75-1.13.51-.1,1.01.23,1.12.74,4.83-3.37,9.7-6.79,14.68-10.37,30.42-21.82,59.08-38.82,86-52.08-.23-1.48.7-2.9,2.18-3.2,1-.2,1.84.27,2.49.96,14.29-6.85,28.08-12.67,41.34-17.48.46-1.07,1.36-1.93,2.59-2.18.82-.17,1.61,0,2.32.35,4.32-1.5,8.52-2.82,12.73-4.12-1.81-.06-3.41-1.28-3.79-3.13-.44-2.17.96-4.28,3.13-4.72,2.17-.44,4.28.96,4.72,3.12.31,1.51-.32,2.96-1.43,3.87,8.98-2.72,17.64-4.92,26.09-6.8-.43-.55-.78-1.17-.93-1.9-.51-2.49,1.1-4.91,3.59-5.42,2.49-.51,4.91,1.1,5.42,3.59.14.67.1,1.32-.05,1.95,8.39-1.65,16.43-2.83,24.26-3.75-.81-.72-1.46-1.64-1.69-2.78-.58-2.83,1.25-5.59,4.08-6.17,2.83-.58,5.59,1.25,6.17,4.08.3,1.46-.07,2.89-.86,4.03,2.89-.26,5.74-.47,8.55-.64.73-1.48,2.04-2.66,3.79-3.02,2.37-.48,4.64.66,5.82,2.62,7.98-.21,15.63-.09,22.91.35-.72-.79-1.31-1.71-1.54-2.84-.68-3.35,1.48-6.61,4.83-7.3,3.35-.68,6.61,1.48,7.3,4.83.47,2.29-.47,4.49-2.13,5.9,2.52.24,4.93.56,7.36.86-.39-3.34,1.75-6.5,5.11-7.18,3.55-.72,7,1.57,7.72,5.11.28,1.38,0,2.7-.53,3.9,1.74.31,3.45.63,5.14.97.48-2.67,2.51-4.91,5.33-5.49,3.69-.75,7.3,1.63,8.05,5.33.23,1.12.09,2.2-.21,3.22,1.45.38,2.92.75,4.32,1.15.66-2.59,2.69-4.72,5.48-5.29,3.89-.79,7.68,1.72,8.48,5.61.29,1.43.01,2.78-.49,4.04,1.29.46,2.57.92,3.8,1.39.33-3.17,2.57-5.92,5.86-6.59,4.06-.83,8.02,1.8,8.85,5.86.47,2.33-.27,4.55-1.68,6.24,1.63.76,3.18,1.52,4.66,2.26-.07-.24-.24-.43-.29-.68-.86-4.23,1.87-8.37,6.11-9.23,1.53-.31,2.98-.02,4.33.5-.49-.87-.98-1.75-1.48-2.6-.88.64-1.87,1.13-3,1.36-4.23.86-8.37-1.87-9.23-6.11-.7-3.43,1.03-6.7,3.93-8.31-.38-.55-.74-1.13-1.12-1.67-2.97-.62-5.43-2.94-6.08-6.1-.14-.69-.04-1.35,0-2.01-.89-1.14-1.77-2.29-2.68-3.39-.39,3.11-2.62,5.77-5.86,6.43-4.06.83-8.02-1.8-8.85-5.86-.83-4.06,1.8-8.03,5.86-8.85.53-.11,1.04,0,1.56,0-.48-.51-.95-1.03-1.43-1.54-.15.04-.26.14-.41.17-4.06.83-8.02-1.8-8.85-5.86-.23-1.11-.15-2.19.1-3.22-1.14-1.03-2.25-2.13-3.41-3.12.03,3.37-2.19,6.42-5.61,7.12-3.89.79-7.68-1.72-8.48-5.61-.77-3.8,1.63-7.47,5.37-8.37-.91-.67-1.79-1.44-2.71-2.09-2.03-.32-3.81-1.47-4.91-3.2-2.19-1.44-4.37-2.92-6.6-4.23-.95,1.11-2.18,1.99-3.73,2.31-3.69.75-7.3-1.63-8.05-5.33-.22-1.1-.1-2.17.19-3.18-1.58-.77-3.19-1.43-4.79-2.14-.34,2.71-2.29,5.04-5.12,5.62-3.55.72-7-1.57-7.72-5.11-.39-1.91.14-3.75,1.23-5.2-2.18-.79-4.34-1.62-6.55-2.32.02.08.07.13.09.21.68,3.35-1.48,6.62-4.83,7.3-3.35.68-6.61-1.48-7.3-4.83-.43-2.13.37-4.16,1.82-5.58-2.56-.65-5.14-1.19-7.73-1.73.01.05.05.08.06.13.65,3.2-1.42,6.32-4.62,6.97-3.2.65-6.32-1.42-6.97-4.62-.33-1.6.03-3.18.87-4.44-2.45-.38-4.88-.8-7.34-1.09-.18,2.41-1.85,4.52-4.33,5.03-3,.61-5.93-1.33-6.54-4.33-.12-.58-.06-1.14,0-1.69-2.92-.2-5.85-.31-8.78-.41-.68.63-1.47,1.15-2.44,1.35-1.79.36-3.49-.31-4.69-1.51-8.17-.03-16.32.32-24.42,1.01.16.33.35.63.42,1,.51,2.49-1.1,4.91-3.59,5.42-2.49.51-4.91-1.1-5.42-3.59-.14-.68-.09-1.35.06-1.98-8.83,1-17.57,2.34-26.14,4.01,1.15.5,2.08,1.48,2.35,2.8.44,2.17-.96,4.28-3.12,4.72-2.17.44-4.28-.96-4.72-3.12-.27-1.31.19-2.55,1.03-3.46-9.3,1.92-18.4,4.16-27.19,6.63.59.48,1.11,1.08,1.27,1.89.38,1.85-.82,3.65-2.66,4.02-1.85.38-3.65-.82-4.02-2.66-.13-.65.13-1.22.35-1.8-9.32,2.75-18.26,5.72-26.72,8.79-.36.79-.96,1.44-1.87,1.63-.61.13-1.18-.09-1.7-.33-16.07,5.98-30.31,12.26-41.86,17.88-5.55,2.7-11.05,5.44-16.56,8.17.06.12.19.19.22.33.19.94-.41,1.85-1.35,2.04-.76.15-1.41-.29-1.76-.94-115.14,57.26-220.9,118.46-298.05,104.79-56.44-10.01-56.4-94.79-56.36-98.86-.3.88-.6,1.75-.89,2.64-1.06,3.25-2.11,6.49-3.05,9.66-.32,1.06-.6,2.13-.91,3.19-38.1,132.79,30.02,192.2,54.99,202.28,36.98,14.94,108.59,27.02,281.49-93.28-.22-.13-.39-.34-.45-.61ZM922.81,465.51c4.06-.83,8.03,1.8,8.85,5.86.83,4.06-1.8,8.03-5.86,8.85-4.06.83-8.02-1.8-8.85-5.86-.83-4.06,1.8-8.03,5.86-8.85ZM606.35,555.77c-.79.16-1.55-.35-1.72-1.14s.35-1.56,1.14-1.72c.79-.16,1.56.35,1.72,1.14.16.79-.35,1.56-1.14,1.72ZM620.85,544.73c-.94.19-1.85-.41-2.04-1.35s.41-1.85,1.35-2.04c.94-.19,1.85.41,2.04,1.35.19.94-.41,1.85-1.35,2.04ZM629.71,516.05c-.22-1.08.48-2.14,1.56-2.36,1.08-.22,2.14.48,2.36,1.56.22,1.08-.48,2.14-1.56,2.36-1.08.22-2.14-.48-2.36-1.56ZM635.34,533.69c-1.08.22-2.14-.48-2.36-1.56-.22-1.08.48-2.14,1.56-2.36,1.08-.22,2.14.48,2.36,1.56.22,1.08-.48,2.14-1.56,2.36ZM643.89,504.79c-.25-1.23.54-2.43,1.77-2.68,1.23-.25,2.43.55,2.68,1.78.25,1.23-.54,2.43-1.77,2.68-1.23.25-2.43-.55-2.68-1.78ZM649.84,522.65c-1.23.25-2.43-.55-2.68-1.78-.25-1.23.54-2.43,1.77-2.68,1.23-.25,2.43.55,2.68,1.78.25,1.23-.54,2.43-1.77,2.68ZM664.33,511.61c-1.38.28-2.72-.61-3-1.99-.28-1.38.61-2.72,1.99-3,1.38-.28,2.72.61,3,1.99.28,1.38-.61,2.72-1.99,3ZM678.83,500.57c-1.53.31-3.02-.68-3.33-2.2-.31-1.53.67-3.02,2.2-3.33,1.53-.31,3.02.67,3.33,2.2.31,1.53-.67,3.02-2.2,3.33ZM689.68,487.11c-.34-1.67.74-3.31,2.41-3.65,1.67-.34,3.31.74,3.65,2.41.34,1.67-.74,3.31-2.41,3.65s-3.31-.74-3.65-2.42ZM696.59,505.6c-1.67.34-3.31-.74-3.65-2.42-.34-1.67.74-3.31,2.41-3.65,1.67-.34,3.31.74,3.65,2.41.34,1.67-.74,3.31-2.41,3.65ZM703.81,475.87c-.38-1.85.82-3.65,2.66-4.02,1.85-.38,3.65.82,4.02,2.66.38,1.85-.82,3.65-2.66,4.02-1.85.38-3.65-.82-4.02-2.66ZM711.1,494.61c-1.85.38-3.65-.82-4.02-2.66-.38-1.85.82-3.65,2.66-4.02,1.85-.38,3.65.82,4.02,2.66.38,1.85-.82,3.65-2.66,4.02ZM740.1,472.57c-2.17.44-4.28-.96-4.72-3.12-.44-2.17.96-4.28,3.12-4.72,2.17-.44,4.28.96,4.72,3.12.44,2.17-.96,4.28-3.13,4.72ZM749.51,458.2c-.48-2.34,1.03-4.62,3.37-5.1,2.34-.48,4.62,1.04,5.1,3.37s-1.03,4.62-3.37,5.1c-2.34.48-4.62-1.04-5.1-3.37ZM757.87,477.65c-2.34.48-4.62-1.04-5.1-3.37-.48-2.34,1.03-4.62,3.37-5.1,2.34-.48,4.62,1.04,5.1,3.37.48,2.34-1.03,4.62-3.37,5.1ZM763.68,446.95c-.51-2.49,1.1-4.91,3.59-5.42,2.49-.51,4.91,1.1,5.42,3.59.51,2.49-1.1,4.91-3.59,5.42-2.49.51-4.91-1.1-5.42-3.59ZM772.37,466.61c-2.49.51-4.91-1.1-5.42-3.59-.51-2.49,1.1-4.91,3.59-5.42,2.49-.51,4.91,1.1,5.42,3.59.51,2.49-1.1,4.91-3.59,5.42ZM781.03,451.79c-.55-2.68,1.19-5.3,3.87-5.85,2.68-.55,5.3,1.19,5.85,3.87.55,2.68-1.19,5.3-3.87,5.85-2.68.55-5.3-1.19-5.85-3.87ZM790.15,471.73c-2.68.55-5.3-1.19-5.85-3.87-.55-2.68,1.19-5.3,3.87-5.85,2.68-.55,5.3,1.19,5.85,3.87.55,2.68-1.19,5.3-3.87,5.85ZM804.64,460.69c-2.83.58-5.59-1.25-6.17-4.08-.58-2.83,1.25-5.59,4.08-6.17,2.83-.58,5.59,1.25,6.17,4.08.58,2.83-1.25,5.59-4.08,6.17ZM822.42,465.77c-3,.61-5.93-1.33-6.55-4.33-.61-3,1.33-5.93,4.33-6.54,3-.61,5.93,1.33,6.54,4.33.61,3-1.33,5.93-4.33,6.55ZM840.2,470.9c-3.2.65-6.32-1.42-6.97-4.62-.65-3.2,1.42-6.32,4.62-6.97,3.2-.65,6.32,1.42,6.97,4.62.65,3.2-1.42,6.32-4.62,6.97ZM854.7,459.86c-3.35.68-6.61-1.48-7.3-4.83-.68-3.35,1.48-6.61,4.83-7.3,3.35-.68,6.61,1.48,7.3,4.83.68,3.35-1.48,6.61-4.83,7.3ZM872.48,464.98c-3.55.72-7-1.57-7.72-5.12-.72-3.54,1.57-7,5.11-7.72,3.55-.72,7,1.57,7.72,5.11.72,3.55-1.57,7.01-5.11,7.73ZM913.64,466.66c.79,3.89-1.72,7.68-5.61,8.48-3.89.79-7.68-1.72-8.47-5.61-.79-3.89,1.72-7.68,5.61-8.48,3.89-.79,7.68,1.72,8.48,5.61ZM901.89,444.98c3.89-.79,7.68,1.72,8.48,5.61.79,3.89-1.72,7.69-5.61,8.48-3.89.79-7.68-1.72-8.48-5.61-.79-3.89,1.72-7.69,5.61-8.48ZM895.57,461.97c.75,3.69-1.63,7.3-5.33,8.05-3.69.75-7.3-1.63-8.05-5.33-.75-3.69,1.63-7.3,5.33-8.05,3.69-.75,7.3,1.63,8.05,5.33ZM892.3,445.89c.75,3.69-1.63,7.3-5.33,8.05-3.69.75-7.3-1.63-8.05-5.33-.75-3.69,1.63-7.3,5.33-8.05,3.69-.75,7.3,1.63,8.05,5.33ZM880.99,424.49c3.69-.75,7.3,1.63,8.05,5.33.75,3.69-1.63,7.3-5.33,8.05-3.69.75-7.3-1.63-8.05-5.33-.75-3.69,1.63-7.3,5.33-8.05ZM874.32,441.18c.72,3.55-1.57,7.01-5.11,7.73-3.55.72-7-1.57-7.72-5.12-.72-3.54,1.57-7,5.11-7.73,3.55-.72,7,1.57,7.72,5.11ZM863.33,419.99c3.55-.72,7,1.57,7.72,5.11.72,3.54-1.57,7-5.11,7.73-3.54.72-7-1.57-7.72-5.11-.72-3.54,1.57-7,5.11-7.73ZM856.26,436.49c.68,3.35-1.48,6.61-4.83,7.3-3.35.68-6.61-1.48-7.3-4.83-.68-3.35,1.48-6.61,4.83-7.3,3.35-.68,6.61,1.48,7.3,4.83ZM845.69,415.58c3.35-.68,6.61,1.48,7.3,4.83.68,3.35-1.48,6.61-4.83,7.3-3.35.68-6.61-1.48-7.3-4.83-.68-3.35,1.48-6.61,4.83-7.3ZM841.55,447.85c.65,3.2-1.41,6.32-4.62,6.98-3.2.65-6.32-1.42-6.97-4.62-.65-3.2,1.42-6.32,4.62-6.97,3.2-.65,6.32,1.42,6.97,4.62ZM838.28,431.77c.65,3.2-1.42,6.32-4.62,6.97-3.2.65-6.32-1.42-6.97-4.62-.65-3.2,1.42-6.32,4.62-6.97,3.2-.65,6.32,1.42,6.97,4.62ZM828.03,411.08c3.2-.65,6.32,1.42,6.97,4.62.65,3.2-1.42,6.32-4.62,6.97-3.2.65-6.32-1.42-6.97-4.62-.65-3.2,1.42-6.32,4.62-6.97ZM823.48,443.15c.61,3-1.33,5.93-4.33,6.54-3,.61-5.93-1.33-6.54-4.33-.61-3,1.33-5.93,4.33-6.54,3-.61,5.93,1.33,6.54,4.33ZM820.21,427.08c.61,3-1.33,5.93-4.33,6.54-3,.61-5.93-1.33-6.54-4.33-.61-3,1.33-5.93,4.33-6.54,3-.61,5.93,1.33,6.54,4.33ZM810.4,406.67c3-.61,5.93,1.33,6.54,4.33.61,3-1.33,5.93-4.33,6.54-3,.61-5.93-1.33-6.54-4.33-.61-3,1.33-5.93,4.33-6.54ZM805.46,438.45c.58,2.83-1.25,5.59-4.08,6.17-2.83.58-5.59-1.25-6.17-4.08-.58-2.83,1.25-5.59,4.08-6.17,2.83-.58,5.59,1.25,6.17,4.08ZM802.19,422.37c.58,2.83-1.25,5.59-4.08,6.17-2.83.58-5.59-1.25-6.17-4.08-.58-2.83,1.25-5.59,4.08-6.17,2.83-.58,5.59,1.25,6.17,4.08ZM792.75,402.21c2.83-.58,5.59,1.25,6.17,4.08.58,2.83-1.25,5.59-4.08,6.17-2.83.58-5.59-1.25-6.17-4.08-.58-2.83,1.25-5.59,4.08-6.17ZM787.48,433.73c.55,2.68-1.19,5.3-3.87,5.85-2.68.55-5.3-1.19-5.85-3.87-.55-2.68,1.19-5.3,3.87-5.85,2.68-.55,5.3,1.19,5.85,3.87ZM784.21,417.66c.55,2.68-1.19,5.3-3.87,5.85-2.68.55-5.3-1.19-5.85-3.87-.55-2.68,1.19-5.3,3.87-5.85,2.68-.55,5.3,1.19,5.85,3.87ZM775.09,397.71c2.68-.55,5.3,1.19,5.85,3.87.55,2.68-1.19,5.3-3.87,5.85-2.68.55-5.3-1.19-5.85-3.87-.55-2.68,1.19-5.3,3.87-5.85ZM769.41,429.04c.51,2.49-1.1,4.91-3.59,5.42-2.49.51-4.91-1.1-5.42-3.59-.51-2.49,1.1-4.91,3.59-5.42,2.49-.51,4.91,1.1,5.42,3.59ZM760.72,409.38c2.49-.51,4.91,1.1,5.42,3.59.51,2.49-1.1,4.91-3.59,5.42-2.49.51-4.91-1.1-5.42-3.59-.51-2.49,1.1-4.91,3.59-5.42ZM754.71,440.4c.48,2.34-1.03,4.62-3.37,5.1-2.34.48-4.62-1.04-5.1-3.37-.48-2.34,1.03-4.62,3.37-5.1,2.34-.48,4.62,1.04,5.1,3.37ZM751.43,424.33c.48,2.34-1.03,4.62-3.37,5.1-2.34.48-4.62-1.04-5.1-3.37-.48-2.34,1.03-4.62,3.37-5.1,2.34-.48,4.62,1.04,5.1,3.37ZM743.07,404.88c2.34-.48,4.62,1.04,5.1,3.37.48,2.34-1.03,4.62-3.37,5.1-2.34.48-4.62-1.04-5.1-3.37-.48-2.34,1.03-4.62,3.37-5.1ZM739.95,451.77c.44,2.17-.96,4.28-3.12,4.72-2.17.44-4.28-.96-4.72-3.13-.44-2.17.96-4.28,3.13-4.72,2.17-.44,4.28.96,4.72,3.13ZM736.68,435.7c.44,2.17-.96,4.28-3.12,4.72-2.17.44-4.28-.96-4.72-3.12-.44-2.17.96-4.28,3.13-4.72,2.17-.44,4.28.96,4.72,3.13ZM728.69,416.5c2.17-.44,4.28.96,4.72,3.12.44,2.17-.96,4.28-3.12,4.72-2.17.44-4.28-.96-4.72-3.12-.44-2.17.96-4.28,3.12-4.72ZM728.47,479.22c.41,1.99-.88,3.94-2.88,4.35-1.99.4-3.94-.88-4.35-2.88-.41-1.99.88-3.94,2.88-4.34,1.99-.41,3.94.88,4.35,2.88ZM725.2,463.14c.41,1.99-.88,3.94-2.88,4.35-1.99.41-3.94-.88-4.35-2.88-.41-2,.88-3.94,2.88-4.35,1.99-.41,3.94.88,4.35,2.88ZM721.93,447.07c.41,1.99-.88,3.94-2.88,4.34-1.99.41-3.94-.88-4.34-2.88-.41-1.99.88-3.94,2.88-4.34,1.99-.41,3.94.88,4.35,2.88ZM718.66,430.99c.41,1.99-.88,3.94-2.88,4.34-1.99.41-3.94-.88-4.34-2.88-.41-1.99.88-3.94,2.88-4.34,1.99-.41,3.94.88,4.35,2.88ZM711.04,412.04c1.99-.4,3.94.88,4.35,2.88.41,1.99-.88,3.94-2.88,4.34-1.99.41-3.94-.88-4.35-2.88-.41-1.99.88-3.94,2.88-4.35ZM707.22,458.43c.38,1.85-.82,3.65-2.66,4.02-1.85.38-3.65-.82-4.02-2.66-.38-1.85.82-3.65,2.66-4.02,1.85-.38,3.65.82,4.02,2.66ZM703.95,442.36c.38,1.85-.82,3.65-2.66,4.02-1.85.38-3.65-.82-4.02-2.66-.38-1.85.82-3.65,2.66-4.02,1.85-.38,3.65.82,4.02,2.66ZM696.66,423.62c1.85-.38,3.65.82,4.02,2.66.38,1.85-.82,3.65-2.66,4.02-1.85.38-3.65-.82-4.02-2.66-.38-1.85.82-3.65,2.66-4.02ZM692.47,469.8c.34,1.67-.74,3.31-2.41,3.65-1.67.34-3.31-.74-3.65-2.42-.34-1.67.74-3.31,2.41-3.65,1.67-.34,3.31.74,3.65,2.42ZM689.2,453.73c.34,1.67-.74,3.31-2.41,3.65-1.67.34-3.31-.74-3.65-2.42-.34-1.67.74-3.31,2.41-3.65,1.67-.34,3.31.74,3.65,2.42ZM685.93,437.65c.34,1.67-.74,3.31-2.41,3.65-1.67.34-3.31-.74-3.65-2.42-.34-1.67.74-3.31,2.41-3.65s3.31.74,3.65,2.42ZM679.01,419.16c1.67-.34,3.31.74,3.65,2.42.34,1.67-.74,3.31-2.41,3.65-1.67.34-3.31-.74-3.65-2.41-.34-1.67.74-3.31,2.41-3.65ZM677.76,481.16c.31,1.53-.67,3.02-2.2,3.33-1.53.31-3.02-.68-3.33-2.2-.31-1.53.67-3.01,2.2-3.33,1.53-.31,3.02.68,3.33,2.2ZM674.49,465.09c.31,1.53-.67,3.02-2.2,3.33-1.53.31-3.02-.67-3.33-2.2-.31-1.53.67-3.02,2.2-3.33,1.53-.31,3.02.68,3.33,2.2ZM671.22,449.01c.31,1.53-.67,3.02-2.2,3.33-1.53.31-3.02-.68-3.33-2.2-.31-1.53.67-3.02,2.2-3.33,1.53-.31,3.02.68,3.33,2.2ZM664.63,430.74c1.53-.31,3.02.68,3.33,2.2.31,1.53-.67,3.02-2.2,3.33-1.53.31-3.02-.68-3.33-2.2-.31-1.53.67-3.02,2.2-3.33ZM663.05,492.53c.28,1.38-.61,2.72-1.99,3-1.38.28-2.72-.61-3-1.99-.28-1.38.61-2.72,1.99-3,1.38-.28,2.72.61,3,1.99ZM659.78,476.45c.28,1.38-.61,2.72-1.99,3-1.38.28-2.72-.61-3-1.99-.28-1.38.61-2.72,1.99-3,1.38-.28,2.72.61,3,1.99ZM656.51,460.38c.28,1.38-.61,2.72-1.99,3-1.38.28-2.72-.61-3-1.99s.61-2.72,1.99-3c1.38-.28,2.72.61,3,1.99ZM653.24,444.3c.28,1.38-.61,2.72-1.99,3-1.38.28-2.72-.61-3-1.99-.28-1.38.61-2.72,1.99-3,1.38-.28,2.72.61,3,1.99ZM646.97,426.24c1.38-.28,2.72.61,3,1.99.28,1.38-.61,2.72-1.99,3-1.38.28-2.72-.61-3-1.99-.28-1.38.61-2.72,1.99-3ZM645.07,487.81c.25,1.23-.54,2.43-1.77,2.68-1.23.25-2.43-.55-2.68-1.78-.25-1.23.55-2.43,1.77-2.68,1.23-.25,2.43.55,2.68,1.77ZM641.8,471.74c.25,1.23-.54,2.43-1.77,2.68-1.23.25-2.43-.55-2.68-1.78-.25-1.23.54-2.43,1.77-2.68,1.23-.25,2.43.54,2.68,1.78ZM638.53,455.66c.25,1.23-.54,2.43-1.77,2.68-1.23.25-2.43-.55-2.68-1.78-.25-1.23.54-2.43,1.77-2.68,1.23-.25,2.43.55,2.68,1.78ZM632.58,437.81c1.23-.25,2.43.55,2.68,1.78.25,1.23-.54,2.43-1.77,2.68-1.23.25-2.43-.54-2.68-1.78-.25-1.23.54-2.43,1.77-2.68ZM630.37,499.17c.22,1.08-.48,2.14-1.56,2.36-1.08.22-2.14-.48-2.36-1.56-.22-1.08.48-2.14,1.56-2.36,1.08-.22,2.14.48,2.36,1.56ZM627.1,483.1c.22,1.08-.48,2.14-1.56,2.36-1.08.22-2.14-.48-2.36-1.56-.22-1.08.48-2.14,1.56-2.36,1.08-.22,2.14.48,2.36,1.56ZM623.83,467.02c.22,1.08-.48,2.14-1.56,2.36-1.08.22-2.14-.48-2.36-1.56-.22-1.08.48-2.14,1.56-2.36,1.08-.22,2.14.48,2.36,1.56ZM618.2,449.39c1.08-.22,2.14.48,2.36,1.56.22,1.08-.48,2.14-1.56,2.36-1.08.22-2.14-.48-2.36-1.56-.22-1.08.48-2.14,1.56-2.36ZM616.89,525.26c.94-.19,1.85.41,2.04,1.35.19.94-.41,1.85-1.35,2.04-.94.19-1.85-.41-2.04-1.35-.19-.94.41-1.85,1.35-2.04ZM613.62,509.19c.94-.19,1.85.41,2.04,1.35.19.94-.41,1.85-1.35,2.04-.94.19-1.85-.41-2.04-1.35-.19-.94.41-1.85,1.35-2.04ZM610.35,493.11c.94-.19,1.85.41,2.04,1.35.19.94-.41,1.85-1.35,2.04-.94.19-1.85-.41-2.04-1.35-.19-.94.41-1.85,1.35-2.04ZM607.08,477.04c.94-.19,1.85.41,2.04,1.35.19.94-.41,1.85-1.35,2.04-.94.19-1.85-.41-2.04-1.35s.41-1.85,1.35-2.04ZM603.81,460.96c.94-.19,1.85.41,2.04,1.35.19.94-.41,1.85-1.35,2.04-.94.19-1.85-.41-2.04-1.35-.19-.94.41-1.85,1.35-2.04ZM602.5,536.84c.79-.16,1.56.35,1.72,1.14.16.79-.35,1.56-1.14,1.72s-1.56-.35-1.72-1.14c-.16-.79.35-1.56,1.14-1.72ZM599.23,520.76c.79-.16,1.56.35,1.72,1.14.16.79-.35,1.56-1.14,1.72-.79.16-1.56-.35-1.72-1.14-.16-.79.35-1.56,1.14-1.72ZM595.96,504.69c.79-.16,1.56.35,1.72,1.14.16.79-.35,1.56-1.14,1.72-.79.16-1.56-.35-1.72-1.14-.16-.79.35-1.56,1.14-1.72ZM592.69,488.61c.79-.16,1.56.35,1.72,1.14.16.79-.35,1.56-1.14,1.72-.79.16-1.55-.35-1.72-1.14-.16-.79.35-1.56,1.14-1.72ZM592.83,565.4c.13.66-.29,1.31-.96,1.45-.66.13-1.31-.29-1.45-.96-.13-.67.29-1.31.96-1.45.66-.13,1.31.29,1.45.96ZM589.42,472.54c.79-.16,1.56.35,1.72,1.14.16.79-.35,1.56-1.14,1.72-.79.16-1.56-.35-1.72-1.14-.16-.79.35-1.56,1.14-1.72ZM589.56,549.33c.14.66-.29,1.31-.96,1.45-.66.13-1.31-.29-1.45-.96-.14-.67.29-1.31.96-1.45s1.31.29,1.45.96ZM586.15,456.46c.79-.16,1.56.35,1.72,1.14.16.79-.35,1.56-1.14,1.72-.79.16-1.56-.35-1.72-1.14-.16-.79.35-1.56,1.14-1.72ZM584.84,532.29c.66-.13,1.31.29,1.45.96.14.66-.29,1.31-.96,1.45-.66.14-1.31-.29-1.45-.96-.14-.66.29-1.31.96-1.45ZM581.57,516.22c.66-.14,1.31.29,1.45.96.13.66-.29,1.31-.96,1.45-.66.13-1.31-.29-1.45-.96-.13-.66.29-1.31.96-1.45ZM578.3,500.14c.66-.14,1.31.29,1.45.96.13.67-.29,1.31-.96,1.45-.66.14-1.31-.29-1.45-.96-.13-.66.29-1.31.96-1.45ZM496.55,509.75s-.1-.02-.11-.07c0-.05.02-.1.07-.11.05-.01.1.02.11.07,0,.05-.02.1-.07.11ZM499.82,525.82s-.1-.02-.11-.07c0-.05.02-.1.07-.11.05-.01.1.02.11.07.01.05-.02.1-.07.11ZM503.09,541.9s-.1-.02-.11-.07c-.01-.05.02-.1.07-.11.05,0,.1.02.11.07.01.05-.02.1-.07.11ZM506.36,557.97s-.1-.02-.11-.07c-.01-.05.02-.1.07-.11s.1.02.11.07c.01.05-.02.1-.07.11ZM509.63,574.05s-.1-.02-.11-.07c0-.05.02-.1.07-.11s.1.02.11.07c0,.05-.02.1-.07.11ZM511.02,498.62c-.15.03-.29-.07-.32-.21-.03-.15.07-.29.21-.32.15-.03.29.07.32.21.03.15-.07.29-.21.32ZM512.9,590.13s-.1-.02-.11-.07c-.01-.05.02-.1.07-.11.05,0,.1.02.11.07,0,.05-.02.1-.07.11ZM514.3,514.69c-.15.03-.29-.07-.32-.21-.03-.15.07-.29.21-.32.15-.03.29.07.32.21.03.15-.07.29-.21.32ZM516.17,606.2s-.1-.02-.11-.07c-.01-.05.02-.1.07-.11.05-.01.1.02.11.07.01.05-.02.1-.07.11ZM517.57,530.77c-.15.03-.29-.06-.32-.21-.03-.15.07-.29.21-.32.15-.03.29.07.32.21.03.15-.07.29-.21.32ZM520.83,546.84c-.15.03-.29-.07-.32-.21s.07-.29.21-.32c.15-.03.29.07.32.21s-.07.29-.21.32ZM524.1,562.92c-.15.03-.29-.07-.32-.21s.07-.29.21-.32c.15-.03.29.07.32.21.03.15-.07.29-.21.32ZM525.51,487.53c-.27.06-.53-.12-.59-.39-.06-.27.12-.53.39-.59.27-.06.54.12.59.39.06.27-.12.53-.39.59ZM527.38,579c-.15.03-.29-.07-.32-.21-.03-.15.07-.29.21-.32.15-.03.29.06.32.21.03.15-.07.29-.21.32ZM528.78,503.61c-.27.06-.53-.12-.59-.39-.06-.27.12-.53.39-.59.27-.06.54.12.59.39.06.27-.12.53-.39.59ZM530.65,595.07c-.15.03-.29-.07-.32-.21-.03-.15.07-.29.21-.32.15-.03.29.07.32.21.03.15-.07.29-.21.32ZM532.05,519.68c-.27.06-.53-.12-.59-.39-.06-.27.12-.53.39-.59.27-.06.54.12.59.39.06.27-.12.53-.39.59ZM535.32,535.76c-.27.06-.53-.12-.59-.39-.06-.27.12-.53.39-.59s.53.12.59.39-.12.54-.39.59ZM538.59,551.84c-.27.06-.53-.12-.59-.39-.06-.27.12-.53.39-.59s.53.12.59.39c.06.27-.12.53-.39.59ZM541.86,567.91c-.27.06-.53-.12-.59-.39-.06-.27.12-.54.39-.59.27-.06.54.12.59.39.06.27-.12.53-.39.59ZM543.27,492.52c-.39.08-.78-.17-.86-.57-.08-.39.17-.78.57-.86.39-.08.78.17.86.57.08.39-.17.78-.57.86ZM545.13,583.99c-.27.06-.53-.12-.59-.39-.06-.27.12-.54.39-.59.27-.06.53.12.59.39.06.27-.12.53-.39.59ZM546.54,508.6c-.39.08-.78-.17-.86-.57-.08-.39.17-.78.57-.86.39-.08.78.17.86.57.08.4-.17.78-.57.86ZM549.81,524.68c-.4.08-.78-.17-.86-.57-.08-.39.17-.78.57-.86.39-.08.78.17.86.57.08.39-.17.78-.57.86ZM553.08,540.75c-.39.08-.78-.17-.86-.57-.08-.39.17-.78.57-.86.39-.08.78.17.86.57.08.39-.17.78-.57.86ZM556.35,556.83c-.39.08-.78-.17-.86-.57-.08-.39.17-.78.57-.86.39-.08.78.17.86.57.08.39-.17.78-.57.86ZM557.75,481.44c-.52.11-1.02-.23-1.13-.75-.11-.52.23-1.02.75-1.13.52-.11,1.02.23,1.13.75.11.52-.23,1.02-.75,1.13ZM559.62,572.9c-.39.08-.78-.18-.86-.57-.08-.4.17-.78.57-.86.39-.08.78.17.86.57.08.39-.17.78-.57.86ZM561.02,497.51c-.52.11-1.02-.23-1.13-.75s.23-1.02.75-1.13c.52-.11,1.02.23,1.13.75.11.52-.23,1.02-.75,1.13ZM564.29,513.59c-.52.11-1.02-.23-1.13-.75-.11-.52.23-1.02.75-1.13.52-.11,1.02.23,1.13.75.11.52-.23,1.02-.75,1.13ZM567.56,529.67c-.52.11-1.02-.23-1.13-.75-.11-.52.23-1.02.75-1.13.52-.11,1.02.23,1.13.75.11.52-.23,1.02-.75,1.13ZM570.83,545.74c-.52.11-1.02-.23-1.13-.75-.11-.52.23-1.02.75-1.13.52-.11,1.02.23,1.13.75.11.52-.23,1.02-.75,1.13ZM570.8,469.44c-.13-.66.29-1.31.96-1.45.66-.14,1.31.29,1.45.96.14.67-.29,1.31-.96,1.45-.66.13-1.31-.29-1.45-.96ZM574.1,561.82c-.52.11-1.02-.23-1.13-.75-.11-.52.23-1.02.75-1.13.52-.11,1.02.23,1.13.75.11.52-.23,1.02-.75,1.13ZM574.07,485.52c-.14-.66.29-1.31.96-1.45.67-.14,1.31.29,1.45.96.13.66-.29,1.31-.96,1.45-.66.13-1.31-.29-1.45-.96Z"/>
    </g>
    <g>
      <path class="cls-1" d="M959.6,625.53c-.35-.78-.76-1.48-1.12-2.25-.42.35-.88.62-1.38.88,1.58.82,2.5,1.37,2.5,1.37Z"/>
      <path class="cls-1" d="M753.96,641.34c-.31-1.94.93-3.8,2.88-4.2,1.28-.26,2.49.23,3.34,1.1,3.63-1.76,7.2-3.4,10.76-4.99-1.39-.4-2.54-1.49-2.84-3.01-.44-2.17.96-4.28,3.12-4.72,2.17-.44,4.28.96,4.72,3.13.19.91-.01,1.79-.4,2.56,6.48-2.79,12.88-5.41,19.1-7.67,1.73-.63,3.36-1.07,5.07-1.66.39-1.7,1.72-3.11,3.54-3.48,1.44-.29,2.81.18,3.85,1.06,3.5-1.1,6.97-2.15,10.38-3.07-1.82-.43-3.33-1.86-3.73-3.81,0,0,0-.01,0-.02s0-.01,0-.02c-.55-2.68,1.19-5.3,3.87-5.85,2.68-.55,5.3,1.19,5.85,3.87,0,0,0,.01,0,.02s0,.01,0,.02c.37,1.82-.37,3.57-1.69,4.7,3.69-.93,7.39-1.89,10.95-2.63.7-.68,1.52-1.24,2.54-1.45,1.1-.22,2.16,0,3.11.43,3.33-.61,6.7-1.28,9.91-1.73-1.46-.74-2.62-2.04-2.98-3.77,0,0,0-.01,0-.02s0-.01,0-.02c-.61-3,1.33-5.93,4.33-6.54,3-.61,5.93,1.33,6.54,4.33,0,0,0,.01,0,.02s0,.01,0,.02c.42,2.07-.43,4.06-1.94,5.32,2.87-.33,5.79-.73,8.56-.95.56-2.1,2.21-3.83,4.48-4.29,2.9-.59,5.63,1.11,6.63,3.79,8.11-.22,15.68.01,22.75.59-1.2-.93-2.14-2.22-2.46-3.82-.72-3.55,1.57-7.01,5.11-7.73,3.54-.72,7,1.57,7.73,5.12.6,2.94-.93,5.72-3.47,7.03,2.95.34,5.69.79,8.42,1.23-.1-.29-.29-.52-.35-.83-.75-3.7,1.63-7.3,5.33-8.05,3.69-.75,7.3,1.63,8.05,5.33.44,2.15-.27,4.19-1.6,5.73,1.95.44,3.77.91,5.58,1.38-.52-3.73,1.87-7.27,5.61-8.03,3.89-.79,7.68,1.72,8.48,5.61.47,2.3-.31,4.48-1.75,6.11,1.91.67,3.6,1.31,5.22,1.95-.04-.13-.13-.23-.16-.37-.79-3.89,1.62-7.61,5.38-8.65-.31-.53-.63-1.04-.94-1.57-3.63.17-6.97-2.19-7.71-5.86-.36-1.75.03-3.43.79-4.9-3.05-4.34-6.25-8.44-9.6-12.28-.94.88-2.03,1.61-3.39,1.88-3.89.79-7.68-1.72-8.48-5.61,0,0,0-.01,0-.02s0-.01,0-.02c-.5-2.46.42-4.8,2.08-6.45-3.94-3.68-8.05-7.03-12.28-10.14-.71.46-1.5.83-2.38,1-3.69.75-7.3-1.63-8.05-5.33-.18-.89-.16-1.77,0-2.61-1.53-.92-3.04-1.86-4.6-2.71-.34,2.71-2.29,5.04-5.12,5.62-3.55.72-7-1.57-7.72-5.11-.46-2.27.4-4.43,1.95-5.94-2.61-1.15-5.27-2.17-7.94-3.17.32.56.63,1.14.76,1.8.68,3.35-1.48,6.61-4.83,7.3-3.35.68-6.61-1.48-7.3-4.83-.6-2.97,1.09-5.77,3.8-6.86-3.68-1.17-7.42-2.2-11.2-3.1.72.77,1.32,1.67,1.54,2.78.65,3.2-1.42,6.32-4.62,6.97-3.2.65-6.32-1.42-6.97-4.62-.58-2.87,1.08-5.58,3.72-6.6-3.56-.7-7.14-1.31-10.77-1.8.22.43.47.85.57,1.35.61,3-1.33,5.93-4.33,6.54-3,.61-5.93-1.33-6.54-4.33-.34-1.68.17-3.29,1.16-4.53-2.75-.24-5.53-.39-8.31-.52-.34,2.09-1.89,3.85-4.09,4.3-2.83.58-5.59-1.25-6.17-4.08-.03-.15.02-.29,0-.44-8.58.02-17.24.53-25.96,1.49,1.68.41,3.07,1.72,3.44,3.53.51,2.49-1.1,4.91-3.59,5.42-2.49.51-4.91-1.1-5.42-3.59-.44-2.17.78-4.22,2.73-5.06-4.12.5-8.24,1.09-12.37,1.79-.61.91-1.56,1.59-2.71,1.82-1.2.24-2.38-.05-3.32-.7-14.42,2.75-28.81,6.56-42.91,11.34,1.02.42,1.88,1.13,2.12,2.29.38,1.85-.82,3.65-2.66,4.02-1.85.38-3.65-.82-4.02-2.66-.16-.78.09-1.51.42-2.17-14.4,5.08-28.46,11.07-41.87,17.8.27.32.61.59.7,1.03.28,1.38-.61,2.72-1.99,3-1.32.27-2.57-.57-2.92-1.86-15.98,8.27-31.02,17.49-44.55,27.33-123.4,89.82-186.91,123.23-272.33,124.01-90.64.83-114.83-42.53-114.83-42.53.12.39.26.75.38,1.14,1.19,3.73,2.45,7.43,3.76,11.11,19.72,54.43,49.84,82.05,95.24,97.94,59.13,20.7,174.27,31.04,320.3-90.67,32.26-26.89,62.9-46.59,91.48-61.06ZM931.33,589.7c3.89-.79,7.68,1.72,8.48,5.61.79,3.89-1.72,7.68-5.61,8.48-3.89.79-7.68-1.72-8.48-5.61-.79-3.89,1.72-7.69,5.61-8.48ZM668.05,694.48c-1.08.22-2.14-.48-2.36-1.56-.22-1.08.48-2.14,1.56-2.36,1.08-.22,2.14.48,2.36,1.56.22,1.08-.48,2.14-1.56,2.36ZM676.6,665.59c-.25-1.23.54-2.43,1.77-2.68,1.23-.25,2.43.55,2.68,1.78.25,1.23-.54,2.43-1.77,2.68-1.23.25-2.43-.54-2.68-1.77ZM682.55,683.44c-1.23.25-2.43-.55-2.68-1.77-.25-1.23.54-2.43,1.77-2.68,1.23-.25,2.43.54,2.68,1.78.25,1.23-.54,2.43-1.78,2.68ZM690.77,654.34c-.28-1.38.61-2.72,1.99-3,1.38-.28,2.72.61,3,1.99.28,1.38-.61,2.72-1.99,3-1.38.28-2.72-.61-3-1.99ZM697.04,672.4c-1.38.28-2.72-.61-3-1.99-.28-1.38.61-2.73,1.99-3.01,1.38-.28,2.72.61,3,1.99.28,1.38-.61,2.72-1.99,3ZM704.94,643.09c-.31-1.53.67-3.02,2.2-3.33,1.53-.31,3.01.67,3.33,2.2.31,1.52-.67,3.01-2.2,3.33-1.53.31-3.02-.68-3.33-2.2ZM711.54,661.36c-1.53.31-3.02-.67-3.33-2.2-.31-1.53.67-3.02,2.2-3.33,1.53-.31,3.02.67,3.33,2.2.31,1.52-.67,3.01-2.2,3.32ZM719.12,631.83s0-.01,0-.02c0,0-.01-.01-.01-.02-.34-1.67.74-3.31,2.41-3.65,1.67-.34,3.31.74,3.65,2.41,0,0,0,.01,0,.02,0,0,.01.01.01.02.34,1.67-.74,3.31-2.41,3.65-1.67.34-3.31-.74-3.65-2.41ZM726.03,650.32c-1.67.34-3.31-.74-3.65-2.41-.34-1.67.74-3.31,2.41-3.65,1.67-.34,3.31.74,3.65,2.42.34,1.67-.74,3.31-2.41,3.65ZM733.24,620.59s0-.01,0-.02c0,0-.01-.01-.01-.02-.38-1.85.82-3.65,2.66-4.02,1.85-.38,3.65.82,4.02,2.66,0,0,0,.01,0,.02,0,0,.01.01.01.02.38,1.84-.82,3.65-2.66,4.02-1.85.38-3.65-.82-4.02-2.66ZM740.54,639.33c-1.85.38-3.65-.82-4.02-2.66-.38-1.85.82-3.65,2.66-4.02,1.85-.38,3.65.82,4.02,2.66.38,1.85-.82,3.65-2.66,4.02ZM747.41,609.29c-.41-1.99.88-3.94,2.88-4.34,1.99-.41,3.94.88,4.34,2.88.41,1.99-.88,3.94-2.88,4.35-1.99.4-3.94-.88-4.35-2.88ZM755.03,628.29c-1.99.41-3.94-.88-4.35-2.87,0,0,0-.01,0-.02s0-.01,0-.02c-.41-1.99.88-3.94,2.88-4.35,1.99-.41,3.94.88,4.35,2.88,0,0,0,.01,0,.02s0,.01,0,.02c.41,1.99-.88,3.94-2.88,4.34ZM769.54,617.29c-2.17.44-4.28-.96-4.72-3.12,0,0,0-.01,0-.02s0-.01,0-.02c-.44-2.17.96-4.28,3.12-4.72,2.17-.44,4.28.96,4.72,3.13,0,0,0,.01,0,.02s0,.01,0,.02c.44,2.17-.96,4.28-3.13,4.72ZM778.94,602.88c-.48-2.34,1.03-4.62,3.37-5.1,2.34-.48,4.62,1.04,5.1,3.37.48,2.34-1.03,4.62-3.37,5.1-2.34.48-4.62-1.04-5.1-3.37ZM787.31,622.37c-2.34.48-4.62-1.03-5.1-3.37,0,0,0-.01,0-.02s0-.01,0-.02c-.48-2.34,1.03-4.62,3.37-5.1,2.34-.48,4.62,1.04,5.1,3.37,0,0,0,.01,0,.02s0,.01,0,.02c.48,2.34-1.04,4.62-3.37,5.09ZM793.11,591.63c-.51-2.49,1.1-4.91,3.59-5.42,2.49-.51,4.91,1.1,5.42,3.59.51,2.49-1.1,4.91-3.59,5.42-2.49.51-4.91-1.1-5.42-3.59ZM801.8,611.33c-2.49.51-4.91-1.1-5.42-3.59,0,0,0-.01,0-.02s0-.01,0-.02c-.51-2.49,1.1-4.91,3.59-5.42,2.49-.51,4.91,1.1,5.42,3.59,0,0,0,.01,0,.02s0,.01,0,.02c.51,2.49-1.1,4.91-3.59,5.42ZM816.31,600.34c-2.68.55-5.3-1.19-5.85-3.87-.55-2.68,1.19-5.3,3.87-5.85,2.68-.55,5.3,1.19,5.85,3.87.55,2.68-1.19,5.3-3.87,5.85ZM834.08,605.41c-2.83.58-5.59-1.25-6.17-4.08,0,0,0-.01,0-.02s0-.01,0-.02c-.58-2.83,1.25-5.59,4.08-6.17,2.83-.58,5.59,1.25,6.17,4.08,0,0,0,.01,0,.02s0,.01,0,.02c.58,2.83-1.25,5.59-4.08,6.17ZM884.14,604.58c-3.35.68-6.61-1.48-7.3-4.83,0,0,0-.01,0-.02s0-.01,0-.02c-.68-3.35,1.48-6.61,4.83-7.3,3.35-.68,6.61,1.48,7.3,4.83,0,0,0,.01,0,.02s0,.01,0,.02c.68,3.35-1.48,6.61-4.83,7.29ZM921.73,590.57s0,.01,0,.02c0,0,0,.01,0,.02.75,3.69-1.63,7.29-5.33,8.04-3.69.75-7.3-1.63-8.05-5.32,0,0,0-.01,0-.02s0-.01,0-.02c-.75-3.69,1.63-7.3,5.33-8.05,3.69-.75,7.3,1.63,8.05,5.33ZM910.42,569.17c3.69-.75,7.3,1.63,8.05,5.33.75,3.69-1.63,7.3-5.33,8.05-3.69.75-7.3-1.63-8.05-5.33-.75-3.69,1.63-7.3,5.33-8.05ZM903.75,585.86s0,.01,0,.02,0,.01,0,.02c.72,3.54-1.57,7-5.11,7.72-3.55.72-7-1.57-7.72-5.11,0,0,0-.01,0-.02s0-.01,0-.02c-.72-3.55,1.57-7,5.11-7.73,3.54-.72,7,1.57,7.72,5.11ZM892.76,564.67c3.55-.72,7,1.57,7.72,5.11.72,3.55-1.57,7.01-5.11,7.73-3.55.72-7-1.57-7.73-5.12-.72-3.54,1.57-7,5.11-7.73ZM885.69,581.17c.68,3.35-1.48,6.62-4.83,7.3-3.35.68-6.61-1.48-7.3-4.83-.68-3.35,1.48-6.61,4.83-7.3,3.35-.68,6.61,1.48,7.3,4.83ZM875.12,560.26c3.35-.68,6.62,1.48,7.3,4.83.68,3.35-1.48,6.61-4.83,7.3-3.35.68-6.61-1.48-7.3-4.83-.68-3.35,1.48-6.61,4.83-7.3ZM870.98,592.53s0,.01,0,.02,0,.01,0,.02c.65,3.2-1.42,6.32-4.62,6.97-3.2.65-6.32-1.42-6.97-4.62,0,0,0-.01,0-.02s0-.01,0-.02c-.65-3.2,1.42-6.32,4.62-6.97,3.2-.65,6.32,1.42,6.97,4.62ZM867.71,576.45c.65,3.2-1.42,6.32-4.62,6.98-3.2.65-6.32-1.42-6.97-4.62-.65-3.2,1.42-6.32,4.62-6.97,3.2-.65,6.32,1.42,6.97,4.62ZM857.46,555.76c3.2-.65,6.32,1.42,6.97,4.62.65,3.2-1.42,6.32-4.62,6.97-3.2.65-6.32-1.42-6.97-4.62s1.42-6.32,4.62-6.97ZM852.91,587.83c.61,3-1.33,5.93-4.33,6.55-3,.61-5.93-1.33-6.54-4.33-.61-3,1.33-5.93,4.33-6.54,3-.61,5.93,1.33,6.54,4.33ZM849.64,571.76c.61,3-1.33,5.93-4.33,6.54-3,.61-5.93-1.33-6.54-4.33-.61-3,1.33-5.93,4.33-6.54,3-.61,5.93,1.33,6.54,4.33ZM839.83,551.35c3-.61,5.93,1.33,6.54,4.33.61,3-1.33,5.93-4.33,6.54-3,.61-5.93-1.33-6.54-4.33-.61-3,1.33-5.93,4.33-6.54ZM834.89,583.13c.58,2.83-1.25,5.59-4.08,6.17-2.83.58-5.59-1.25-6.17-4.08-.58-2.83,1.25-5.59,4.08-6.17,2.83-.58,5.59,1.25,6.17,4.08ZM831.62,567.05c.58,2.83-1.25,5.59-4.08,6.17-2.83.58-5.59-1.25-6.17-4.08-.58-2.83,1.25-5.59,4.08-6.17,2.83-.58,5.59,1.25,6.17,4.08ZM822.18,546.89c2.83-.58,5.59,1.25,6.17,4.08.58,2.83-1.25,5.59-4.08,6.17-2.83.58-5.59-1.25-6.17-4.08-.58-2.83,1.25-5.59,4.08-6.17ZM816.91,578.42c.55,2.68-1.19,5.3-3.87,5.85-2.68.55-5.3-1.19-5.85-3.87-.55-2.68,1.19-5.3,3.87-5.85,2.68-.55,5.3,1.19,5.85,3.87ZM813.64,562.34c.55,2.68-1.19,5.3-3.87,5.85-2.68.55-5.3-1.19-5.85-3.87-.55-2.68,1.19-5.3,3.87-5.85,2.68-.55,5.3,1.19,5.85,3.87ZM804.52,542.39c2.68-.55,5.3,1.19,5.85,3.87.55,2.68-1.19,5.3-3.87,5.85-2.68.55-5.3-1.19-5.85-3.87-.55-2.68,1.19-5.3,3.87-5.85ZM798.84,573.72c.51,2.49-1.1,4.91-3.59,5.42-2.49.51-4.91-1.1-5.42-3.59-.51-2.49,1.1-4.91,3.59-5.42,2.49-.51,4.91,1.1,5.42,3.59ZM790.15,554.06c2.49-.51,4.91,1.1,5.42,3.59.51,2.49-1.1,4.91-3.59,5.42-2.49.51-4.91-1.1-5.42-3.59-.51-2.49,1.1-4.91,3.59-5.42ZM784.14,585.08c.48,2.34-1.03,4.62-3.37,5.1-2.34.48-4.62-1.04-5.1-3.37-.48-2.34,1.03-4.62,3.37-5.1,2.34-.48,4.62,1.04,5.1,3.37ZM780.86,569.01c.48,2.34-1.03,4.62-3.37,5.1-2.34.48-4.62-1.04-5.1-3.37-.48-2.34,1.03-4.62,3.37-5.1,2.34-.48,4.62,1.04,5.1,3.37ZM772.5,549.56c2.34-.48,4.62,1.04,5.1,3.37.48,2.34-1.03,4.62-3.37,5.1-2.34.48-4.62-1.04-5.1-3.37-.48-2.34,1.03-4.62,3.37-5.1ZM769.38,596.45c.44,2.17-.96,4.28-3.12,4.72s-4.28-.96-4.72-3.12c-.44-2.17.96-4.28,3.13-4.72s4.28.96,4.72,3.12ZM766.11,580.38c.44,2.17-.96,4.28-3.12,4.72-2.17.44-4.28-.96-4.72-3.12-.44-2.17.96-4.28,3.12-4.72,2.17-.44,4.28.96,4.72,3.13ZM762.84,564.3c.44,2.17-.96,4.28-3.13,4.72-2.17.44-4.28-.96-4.72-3.12-.44-2.17.96-4.28,3.12-4.72,2.17-.44,4.28.96,4.72,3.13ZM754.85,545.1c2.17-.44,4.28.96,4.72,3.12.44,2.17-.96,4.28-3.12,4.72-2.17.44-4.28-.96-4.72-3.12-.44-2.17.96-4.28,3.13-4.72ZM751.36,591.75c.41,1.99-.88,3.94-2.88,4.35-1.99.41-3.94-.88-4.34-2.88-.41-2,.88-3.94,2.88-4.35,1.99-.41,3.94.88,4.35,2.88ZM748.09,575.67c.41,1.99-.88,3.94-2.88,4.35-1.99.4-3.94-.88-4.35-2.88-.41-1.99.88-3.94,2.88-4.34,1.99-.41,3.94.88,4.35,2.88ZM740.47,556.72c1.99-.4,3.94.88,4.35,2.88.41,1.99-.88,3.94-2.88,4.34-1.99.41-3.94-.88-4.35-2.88-.41-1.99.88-3.94,2.88-4.35ZM736.65,603.11c.38,1.85-.82,3.65-2.66,4.02-1.85.38-3.65-.82-4.02-2.66-.38-1.85.82-3.65,2.66-4.02,1.85-.38,3.65.82,4.02,2.66ZM733.38,587.04c.38,1.85-.82,3.65-2.66,4.02-1.85.38-3.65-.82-4.02-2.66-.38-1.85.82-3.65,2.66-4.02,1.85-.38,3.65.82,4.02,2.66ZM726.09,568.3c1.85-.38,3.65.82,4.02,2.66.38,1.85-.82,3.65-2.66,4.02-1.85.38-3.65-.82-4.02-2.66-.38-1.85.82-3.65,2.66-4.02ZM721.9,614.48c.34,1.67-.74,3.31-2.41,3.65-1.67.34-3.31-.74-3.65-2.42-.34-1.67.74-3.31,2.41-3.65,1.67-.34,3.31.74,3.65,2.41ZM718.63,598.41c.34,1.67-.74,3.31-2.41,3.65-1.67.34-3.31-.74-3.65-2.42-.34-1.67.74-3.31,2.41-3.65,1.67-.34,3.31.74,3.65,2.42ZM715.36,582.33c.34,1.67-.74,3.31-2.41,3.65-1.67.34-3.31-.74-3.65-2.42-.34-1.67.74-3.31,2.41-3.65,1.67-.34,3.31.74,3.65,2.42ZM708.44,563.84c1.67-.34,3.31.74,3.65,2.42.34,1.67-.74,3.31-2.41,3.65-1.67.34-3.31-.74-3.65-2.42-.34-1.67.74-3.31,2.41-3.65ZM707.19,625.84s0,.01,0,.02c0,0,.01.01.01.02.31,1.53-.67,3.02-2.2,3.33-1.53.31-3.02-.68-3.33-2.2,0,0,0-.01,0-.02,0,0-.01-.01-.01-.02-.31-1.53.67-3.02,2.2-3.33,1.53-.31,3.02.67,3.33,2.2ZM703.92,609.77c.31,1.53-.67,3.02-2.2,3.33-1.53.31-3.02-.68-3.33-2.2-.31-1.53.67-3.02,2.2-3.33,1.53-.31,3.02.68,3.33,2.2ZM700.65,593.69c.31,1.53-.67,3.02-2.2,3.33-1.53.31-3.02-.68-3.33-2.2-.31-1.53.67-3.02,2.2-3.33,1.53-.31,3.02.68,3.33,2.2ZM694.06,575.42c1.53-.31,3.02.68,3.33,2.2.31,1.53-.67,3.02-2.2,3.33-1.53.31-3.02-.68-3.33-2.2-.31-1.53.67-3.02,2.2-3.33ZM692.48,637.21s0,.01,0,.02c0,0,.01.01.01.02.28,1.38-.61,2.72-1.99,3-1.38.28-2.72-.61-3-1.99,0,0,0-.01,0-.02,0,0-.01-.01-.01-.02-.28-1.38.61-2.72,1.99-3,1.38-.28,2.72.61,3,1.99ZM689.21,621.13c.28,1.38-.61,2.72-1.99,3-1.38.28-2.72-.61-3-1.99-.28-1.38.61-2.72,1.99-3,1.38-.28,2.72.61,3,1.99ZM685.94,605.06c.28,1.38-.61,2.72-1.99,3-1.38.28-2.72-.61-3-1.99-.28-1.38.61-2.72,1.99-3,1.38-.28,2.72.61,3,1.99ZM679.67,586.99c1.38-.28,2.72.61,3,1.99.28,1.38-.61,2.72-1.99,3-1.38.28-2.72-.61-3-1.99-.28-1.38.61-2.72,1.99-3ZM677.78,648.61c.25,1.23-.54,2.43-1.77,2.68-1.23.25-2.43-.54-2.68-1.77-.25-1.23.54-2.43,1.77-2.68,1.23-.25,2.43.54,2.68,1.78ZM674.5,632.49s0,.01,0,.02c0,0,.01.01.01.02.25,1.23-.54,2.43-1.78,2.68-1.23.25-2.43-.54-2.68-1.77,0,0,0-.01,0-.02,0,0-.01-.01-.01-.02-.25-1.23.55-2.43,1.77-2.68,1.23-.25,2.43.55,2.68,1.78ZM671.23,616.42c.25,1.23-.54,2.43-1.77,2.68-1.23.25-2.43-.55-2.68-1.78-.25-1.23.54-2.43,1.77-2.68,1.23-.25,2.43.55,2.68,1.77ZM667.96,600.34c.25,1.23-.54,2.43-1.77,2.68-1.23.25-2.43-.55-2.68-1.78-.25-1.23.54-2.43,1.77-2.68,1.23-.25,2.43.55,2.68,1.78ZM662.01,582.49c1.23-.25,2.43.55,2.68,1.78.25,1.23-.54,2.43-1.77,2.68-1.23.25-2.43-.54-2.68-1.78-.25-1.23.54-2.43,1.77-2.68ZM653.26,611.7c.22,1.08-.48,2.14-1.56,2.36-1.08.22-2.14-.48-2.36-1.56-.22-1.08.48-2.14,1.56-2.36,1.08-.22,2.14.48,2.36,1.56ZM647.63,594.07c1.08-.22,2.14.48,2.36,1.56.22,1.08-.48,2.14-1.56,2.36-1.08.22-2.14-.48-2.36-1.56-.22-1.08.48-2.14,1.56-2.36ZM529.26,670.54s-.1-.02-.11-.07c0-.01.01-.01.02-.03,0,0-.02,0-.02-.02,0-.05.02-.1.07-.11.05-.01.1.02.11.07,0,.01-.01.01-.02.02,0,0,.02,0,.02.02,0,.05-.02.1-.07.11ZM532.53,686.62s-.1-.02-.11-.07c-.01-.05.02-.1.07-.11.05,0,.1.02.11.07.01.05-.02.1-.07.11ZM535.8,702.7s-.1-.02-.11-.07c-.01-.05.02-.1.07-.11.05,0,.1.02.11.07,0,.05-.02.1-.07.11ZM539.07,718.77s-.1-.02-.11-.07c-.01-.05.02-.1.07-.11.05-.01.1.02.11.07,0,.05-.02.1-.07.11ZM542.34,734.85s-.1-.02-.11-.07c-.01-.05.02-.1.07-.11.05,0,.1.02.11.07.01.05-.02.1-.07.11ZM545.61,750.92s-.1-.02-.11-.07c-.01-.05.02-.1.07-.11.05,0,.1.02.11.07.01.05-.02.1-.07.11ZM547,675.49c-.15.03-.29-.06-.32-.21-.03-.15.06-.29.21-.32.15-.03.29.07.32.21.03.15-.07.29-.21.32ZM548.88,767s-.1-.02-.11-.07c0-.05.02-.1.07-.11.05,0,.1.02.11.07,0,.05-.02.1-.07.11ZM550.27,691.57c-.15.03-.29-.06-.32-.21-.03-.15.07-.29.21-.32.15-.03.29.07.32.21.03.15-.07.29-.21.32ZM553.54,707.64c-.15.03-.29-.07-.32-.21-.03-.15.07-.29.21-.32.15-.03.29.06.32.21.03.14-.07.29-.21.32ZM556.81,723.72c-.15.03-.29-.07-.32-.21-.03-.15.07-.29.21-.32.15-.03.29.06.32.21.03.15-.07.29-.21.32ZM560.08,739.79c-.15.03-.29-.07-.32-.21-.03-.15.07-.29.21-.32.15-.03.29.06.32.21.03.15-.07.29-.21.32ZM561.49,664.41c-.27.06-.53-.12-.59-.39,0-.01.02-.01.02-.02,0-.01-.02,0-.02-.02-.06-.27.12-.53.39-.59.27-.06.54.12.59.39,0,.01-.02.01-.02.02,0,.01.02,0,.02.02.05.27-.12.53-.39.59ZM563.35,755.87c-.15.03-.29-.07-.32-.21-.03-.15.07-.29.21-.32.15-.03.29.06.32.21.03.15-.07.29-.21.32ZM564.76,680.48c-.27.05-.53-.12-.59-.39-.06-.27.12-.54.39-.59.27-.06.54.12.59.39.06.27-.12.53-.39.59ZM568.03,696.56c-.27.06-.53-.12-.59-.39-.06-.27.12-.54.39-.59s.54.12.59.39c.06.27-.12.53-.39.59ZM571.3,712.63c-.27.06-.53-.12-.59-.39-.06-.27.12-.54.39-.59.27-.06.54.12.59.39.05.27-.12.54-.39.59ZM574.57,728.71c-.27.05-.53-.12-.59-.39-.06-.27.12-.54.39-.59.27-.06.54.12.59.39.06.27-.12.53-.39.59ZM575.98,653.32c-.4.08-.78-.17-.86-.57,0-.01.02-.01.02-.03,0-.01-.02,0-.02-.02-.08-.39.17-.78.57-.86.39-.08.78.17.86.57,0,.01-.02.01-.02.03,0,.01.02,0,.02.02.08.39-.17.78-.57.86ZM577.84,744.78c-.27.06-.53-.12-.59-.39-.05-.27.12-.54.39-.59.27-.06.54.12.59.39.06.27-.12.53-.39.59ZM579.25,669.4c-.39.08-.78-.17-.86-.57-.08-.39.17-.78.57-.86.39-.08.78.17.86.57.08.39-.18.78-.57.86ZM582.52,685.47c-.4.08-.78-.17-.86-.57-.08-.4.17-.78.57-.86.39-.08.78.17.86.57.08.39-.18.78-.57.86ZM585.78,701.55c-.39.08-.78-.17-.86-.56-.08-.4.17-.78.57-.86.39-.08.78.17.86.57.08.39-.18.78-.57.86ZM589.06,717.62c-.39.08-.78-.17-.86-.57-.08-.39.17-.78.57-.86.39-.08.78.17.86.57.08.39-.18.78-.57.86ZM590.45,642.19c-.52.11-1.02-.23-1.13-.75-.11-.52.23-1.02.75-1.13.52-.11,1.02.23,1.13.75.11.52-.23,1.02-.75,1.13ZM592.33,733.7c-.39.08-.78-.17-.86-.57-.08-.39.17-.78.57-.86.39-.08.78.17.86.57.08.39-.18.78-.57.86ZM593.73,658.31c-.52.11-1.02-.23-1.13-.74,0,0,0-.01,0-.02,0,0-.01-.01-.01-.02-.11-.52.23-1.02.75-1.13.52-.11,1.02.23,1.13.75,0,0,0,.01,0,.02,0,0,.01.01.01.02.11.52-.23,1.02-.75,1.12ZM595.6,749.77c-.39.08-.78-.17-.86-.57-.08-.39.17-.78.57-.86.39-.08.78.17.86.57.08.39-.17.78-.57.86ZM597,674.39c-.52.11-1.02-.23-1.13-.74-.11-.52.23-1.02.75-1.13.52-.11,1.02.23,1.13.75.1.51-.23,1.02-.75,1.12ZM600.27,690.46c-.52.11-1.02-.23-1.13-.74-.11-.52.23-1.02.75-1.13.52-.11,1.02.23,1.13.75.11.52-.23,1.02-.75,1.12ZM603.54,706.54c-.52.11-1.02-.23-1.13-.75-.11-.52.23-1.02.75-1.13.52-.11,1.02.23,1.13.75.11.52-.23,1.02-.75,1.13ZM603.5,630.2c-.13-.66.29-1.31.96-1.45.66-.14,1.31.29,1.45.96.14.67-.29,1.31-.96,1.45-.66.14-1.31-.29-1.45-.96ZM606.81,722.61c-.52.11-1.02-.23-1.13-.75-.11-.52.23-1.02.75-1.13.52-.11,1.02.23,1.13.75.1.52-.23,1.02-.75,1.13ZM606.78,646.31s0-.01,0-.02c0,0-.01-.01-.01-.02-.13-.66.29-1.31.96-1.45.67-.14,1.31.29,1.45.96,0,0,0,.01,0,.02,0,0,.01.01.01.02.13.67-.29,1.31-.96,1.45-.66.13-1.31-.29-1.45-.96ZM610.08,738.69c-.52.11-1.02-.23-1.13-.75-.11-.52.23-1.02.75-1.13s1.02.23,1.13.75c.11.52-.23,1.02-.75,1.13ZM611.5,663.35c-.66.14-1.31-.29-1.45-.96-.14-.67.29-1.31.96-1.45.66-.13,1.31.29,1.45.96.13.66-.29,1.31-.96,1.45ZM614.77,679.42c-.66.13-1.31-.3-1.45-.96-.14-.67.29-1.31.96-1.45.67-.14,1.31.29,1.45.96.13.66-.29,1.31-.96,1.45ZM618.04,695.5c-.66.13-1.31-.3-1.45-.96-.14-.67.29-1.31.96-1.45.67-.14,1.31.29,1.45.96.13.66-.29,1.31-.96,1.45ZM617.72,618.93c-.16-.79.35-1.56,1.14-1.72.79-.16,1.56.35,1.72,1.14.16.79-.35,1.56-1.14,1.72-.79.16-1.56-.35-1.72-1.14ZM621.31,711.57c-.66.14-1.31-.29-1.45-.96-.14-.67.29-1.31.96-1.45.66-.13,1.31.29,1.45.96.13.66-.29,1.31-.96,1.45ZM620.99,635.01c-.16-.79.35-1.56,1.14-1.72.79-.16,1.56.35,1.72,1.14.16.79-.35,1.56-1.14,1.72-.79.16-1.56-.35-1.72-1.14ZM624.58,727.65c-.66.13-1.31-.29-1.45-.96-.14-.67.29-1.31.96-1.45.66-.13,1.31.29,1.45.96.13.66-.3,1.31-.96,1.45ZM625.98,652.26c-.79.16-1.55-.35-1.71-1.13,0,0,0-.01,0-.02,0,0-.01-.01-.01-.02-.16-.79.35-1.56,1.14-1.72.79-.16,1.56.35,1.72,1.14,0,0,0,.01,0,.02,0,0,.01.01.01.02.16.79-.35,1.55-1.14,1.71ZM629.25,668.34c-.79.16-1.55-.35-1.72-1.13-.16-.79.35-1.56,1.14-1.72.79-.16,1.56.35,1.72,1.14.16.79-.35,1.55-1.14,1.71ZM632.52,684.41c-.79.16-1.55-.35-1.72-1.13-.16-.79.35-1.56,1.14-1.72.79-.16,1.56.35,1.72,1.14.16.79-.35,1.55-1.14,1.71ZM631.89,607.68c-.19-.94.41-1.85,1.35-2.04.94-.19,1.85.41,2.04,1.35.19.94-.41,1.85-1.35,2.04-.94.19-1.85-.41-2.04-1.35ZM635.79,700.49c-.79.16-1.56-.35-1.72-1.14-.16-.79.35-1.56,1.14-1.72.79-.16,1.56.35,1.72,1.14.16.79-.35,1.55-1.14,1.72ZM635.16,623.76c-.19-.94.41-1.85,1.35-2.04.94-.19,1.85.41,2.04,1.35.19.94-.41,1.85-1.35,2.04-.94.19-1.85-.41-2.04-1.35ZM639.06,716.56c-.79.16-1.56-.35-1.72-1.14-.16-.79.35-1.56,1.14-1.72.79-.16,1.56.35,1.72,1.14.16.79-.35,1.56-1.14,1.72ZM640.48,641.22c-.94.19-1.85-.41-2.04-1.35,0,0,0-.01,0-.02,0,0-.01-.01-.01-.02-.19-.94.41-1.85,1.35-2.04.94-.19,1.85.41,2.04,1.35,0,0,0,.01,0,.02,0,0,.01.01.01.02.19.93-.41,1.85-1.35,2.04ZM643.75,657.3c-.94.19-1.85-.41-2.04-1.35-.19-.94.41-1.85,1.35-2.04.94-.19,1.85.41,2.04,1.35.19.93-.41,1.85-1.35,2.04ZM647.02,673.37c-.94.19-1.85-.41-2.04-1.35-.19-.94.41-1.85,1.35-2.04.94-.19,1.85.41,2.04,1.35.19.93-.41,1.85-1.35,2.04ZM650.29,689.45c-.94.19-1.85-.41-2.04-1.35-.19-.94.41-1.85,1.35-2.04.94-.19,1.85.41,2.04,1.35.19.93-.41,1.85-1.35,2.04ZM653.56,705.52c-.94.19-1.85-.41-2.04-1.35-.19-.94.41-1.85,1.35-2.04.94-.19,1.85.41,2.04,1.35.19.94-.41,1.85-1.35,2.04ZM652.6,628.58c-.22-1.08.48-2.14,1.56-2.36,1.08-.22,2.14.48,2.36,1.56.22,1.08-.48,2.14-1.56,2.36-1.08.22-2.14-.48-2.36-1.56ZM655.88,644.7s0-.01,0-.02c0,0-.01-.01-.01-.02-.22-1.08.48-2.14,1.56-2.36,1.08-.22,2.14.48,2.36,1.56,0,0,0,.01,0,.02,0,0,.01.01.01.02.22,1.08-.48,2.14-1.56,2.36-1.08.22-2.14-.48-2.36-1.56ZM659.15,660.77c-.22-1.09.48-2.14,1.56-2.36,1.08-.22,2.14.48,2.36,1.56.22,1.08-.48,2.14-1.56,2.36-1.08.22-2.14-.48-2.36-1.56ZM663.98,674.49c1.08-.22,2.14.48,2.36,1.56.22,1.08-.48,2.14-1.56,2.36-1.08.22-2.14-.48-2.36-1.56-.22-1.09.48-2.14,1.56-2.36Z"/>
    </g>
    <path class="cls-1" d="M639.39,882.62c-.11-.52.23-1.02.75-1.13.52-.11,1.02.23,1.13.75.05.24-.01.48-.13.68,38.99-17.65,67.6-43.26,89.69-63.25,13.33-12.06,23.34-22.35,39.31-35.83-1.5-.09-2.87-.95-3.19-2.5-.38-1.85.82-3.65,2.66-4.02,1.85-.38,3.65.82,4.02,2.66.08.41-.16.75-.22,1.14,3.17-2.62,6.58-5.38,10.28-8.29-1.26-.38-2.29-1.37-2.57-2.75-.41-2,.88-3.94,2.88-4.35,1.99-.41,3.94.88,4.35,2.88.04.21,0,.41,0,.61,3.35-2.58,6.62-4.98,9.86-7.34-1.44-.37-2.63-1.5-2.95-3.05-.44-2.17.96-4.28,3.12-4.72,2.17-.44,4.28.96,4.72,3.13.07.37.03.72,0,1.08,3.68-2.6,7.26-5.03,10.8-7.36-2.12.14-4.08-1.23-4.51-3.37-.48-2.34,1.03-4.62,3.37-5.1,2.34-.48,4.62,1.04,5.1,3.37.2.99-.01,1.94-.44,2.77,13.84-8.91,26.38-15.56,37.66-20.45.29-2.15,1.84-3.98,4.09-4.44,1.59-.32,3.1.16,4.27,1.1,2.74-1.04,5.41-1.98,7.98-2.82-1.09-.79-1.92-1.94-2.21-3.36-.61-3,1.33-5.93,4.33-6.55,3-.61,5.93,1.33,6.54,4.33.22,1.09.01,2.14-.37,3.1,3.24-.84,6.33-1.54,9.27-2.08.64-.45,1.38-.78,2.19-.94.95-.19,1.87-.08,2.75.16,3.2-.45,6.25-.77,9.06-.91-1.09-.87-1.95-2.06-2.25-3.53-.68-3.35,1.48-6.62,4.83-7.3,3.35-.68,6.61,1.48,7.3,4.83.47,2.3-.47,4.51-2.16,5.92,2.73.11,5.14.37,7.38.69-.3-3.28,1.81-6.35,5.11-7.02,3.54-.72,7,1.57,7.72,5.12.36,1.75-.03,3.48-.94,4.88,2.35.92,3.75,1.72,4.05,1.9.01-.03.03-.06.04-.09-.32-1.05-2.62-8.21-8.34-16.87-.87.86-1.91,1.57-3.2,1.83-3.54.72-7-1.57-7.72-5.11-.56-2.75.72-5.4,2.95-6.81-3.61-3.89-7.94-7.71-13.1-11.17-.85.9-1.88,1.63-3.18,1.89-3.35.68-6.61-1.48-7.3-4.83-.2-.98-.1-1.92.15-2.82-1.91-.88-3.91-1.69-6-2.45-.31,2.44-2.07,4.54-4.62,5.06-3.2.65-6.32-1.42-6.97-4.62-.26-1.29,0-2.51.52-3.62-2.25-.47-4.61-.83-7.03-1.14-.46,2.08-2.08,3.8-4.3,4.25-3,.61-5.93-1.33-6.54-4.33-.05-.26.01-.51,0-.76-7.31-.15-15.38.54-24.09,2.02,1.11.7,1.95,1.81,2.24,3.19.55,2.68-1.19,5.3-3.87,5.85-2.68.55-5.3-1.19-5.85-3.87-.3-1.49.14-2.92,1.01-4.02-7.72,1.64-15.97,3.95-24.8,7.07.34.48.6,1.03.73,1.64.48,2.34-1.03,4.62-3.37,5.1-2.34.48-4.62-1.04-5.1-3.37-.03-.13.01-.25,0-.38-12.1,4.72-25.19,10.85-39.4,18.69-.43.98-1.15,1.8-2.28,2.03-.35.07-.63-.15-.97-.19-3.83,2.15-7.67,4.34-11.66,6.74.16.28.47.46.54.79.34,1.67-.74,3.31-2.41,3.65-1.25.25-2.3-.43-2.98-1.42-3.76,2.32-7.51,4.63-11.4,7.17,1,.27,1.87.88,2.09,1.96.31,1.52-.67,3.02-2.2,3.33-1.53.31-3.02-.68-3.33-2.2-.06-.32.13-.58.17-.88-16.32,10.81-33.75,23.43-52.58,38.45-174.74,139.37-322.6,79.92-329.33,77.11.03.03.07.06.1.09,27.82,15.84,137.71,75.74,233.03,63.56,22.92-2.93,42.07-8.97,42.07-8.97,8.67-2.73,16.72-6.02,24.52-9.51-.42-.03-.79-.27-.88-.7ZM902.29,688.91c3.35-.68,6.61,1.48,7.3,4.83.68,3.35-1.48,6.61-4.83,7.3-3.35.68-6.61-1.48-7.3-4.83-.68-3.35,1.48-6.62,4.83-7.3ZM894.88,705.1c.65,3.2-1.42,6.32-4.62,6.97-3.2.65-6.32-1.42-6.97-4.62-.65-3.2,1.42-6.32,4.62-6.98,3.2-.65,6.32,1.42,6.97,4.62ZM884.64,684.41c3.2-.65,6.32,1.42,6.97,4.62.65,3.2-1.42,6.32-4.62,6.97-3.2.65-6.32-1.42-6.97-4.62-.65-3.2,1.42-6.32,4.62-6.98ZM669.5,861.24c-.79.16-1.56-.35-1.72-1.14-.16-.79.35-1.56,1.14-1.72.79-.16,1.56.35,1.72,1.14.16.79-.35,1.56-1.14,1.72ZM683.99,850.21c-.94.19-1.85-.41-2.04-1.35-.19-.94.41-1.85,1.35-2.04.94-.19,1.85.41,2.04,1.35s-.41,1.85-1.35,2.04ZM692.86,821.53c-.22-1.08.48-2.14,1.56-2.36,1.08-.22,2.14.48,2.36,1.56.22,1.08-.48,2.14-1.56,2.36-1.08.22-2.14-.48-2.36-1.56ZM698.49,839.16c-1.08.22-2.14-.48-2.36-1.56-.22-1.08.48-2.14,1.56-2.36,1.08-.22,2.14.48,2.36,1.56.22,1.08-.48,2.14-1.56,2.36ZM707.03,810.27c-.25-1.23.54-2.43,1.77-2.68,1.23-.25,2.43.55,2.68,1.78.25,1.23-.54,2.43-1.77,2.68-1.23.25-2.43-.54-2.68-1.77ZM712.98,828.12c-1.23.25-2.43-.55-2.68-1.77-.25-1.23.55-2.43,1.78-2.68,1.23-.25,2.43.54,2.68,1.77.25,1.23-.54,2.43-1.78,2.68ZM727.48,817.08c-1.38.28-2.72-.61-3-1.99-.28-1.38.61-2.73,1.99-3.01,1.38-.28,2.72.61,3,1.99.28,1.38-.61,2.73-1.99,3.01ZM741.97,806.04c-1.53.31-3.02-.68-3.33-2.2-.31-1.53.67-3.02,2.2-3.33,1.53-.31,3.01.67,3.33,2.2.31,1.53-.67,3.02-2.2,3.33ZM749.55,776.51c-.34-1.67.74-3.31,2.41-3.65,1.67-.34,3.31.74,3.65,2.42.34,1.67-.74,3.31-2.41,3.65-1.67.34-3.31-.74-3.65-2.41ZM756.47,795c-1.67.34-3.31-.74-3.65-2.41-.34-1.67.74-3.31,2.41-3.65,1.67-.34,3.31.74,3.65,2.41.34,1.67-.74,3.31-2.41,3.65ZM767.7,767.93c-1.85.38-3.65-.82-4.02-2.66-.38-1.85.82-3.65,2.66-4.02,1.85-.38,3.65.82,4.02,2.66.38,1.85-.82,3.65-2.66,4.02ZM782.2,756.89c-1.99.41-3.94-.88-4.35-2.87-.41-2,.88-3.94,2.88-4.35,1.99-.41,3.94.88,4.35,2.88.41,1.99-.88,3.94-2.88,4.34ZM811.2,734.9c-2.34.48-4.62-1.03-5.1-3.37-.48-2.34,1.03-4.62,3.37-5.1,2.34-.48,4.62,1.04,5.1,3.37.48,2.34-1.04,4.62-3.37,5.09ZM828.97,739.94c-2.49.51-4.91-1.1-5.42-3.59-.51-2.49,1.1-4.91,3.59-5.42,2.49-.51,4.91,1.1,5.42,3.59.51,2.49-1.1,4.91-3.59,5.42ZM843.48,728.98c-2.68.55-5.3-1.19-5.85-3.87-.55-2.68,1.19-5.3,3.87-5.85,2.68-.55,5.3,1.19,5.85,3.87.55,2.68-1.19,5.3-3.87,5.85ZM876.81,700.4c.61,3-1.33,5.93-4.33,6.54-3,.61-5.93-1.33-6.54-4.33-.61-3,1.33-5.93,4.33-6.55,3-.61,5.93,1.33,6.54,4.33ZM867,680c3-.61,5.93,1.33,6.54,4.33.61,3-1.33,5.93-4.33,6.54-3,.61-5.93-1.33-6.54-4.33-.61-3,1.33-5.93,4.33-6.54ZM862.06,711.77c.58,2.83-1.25,5.59-4.08,6.17s-5.59-1.25-6.17-4.08c-.58-2.83,1.25-5.59,4.08-6.17,2.83-.58,5.59,1.25,6.17,4.09ZM858.79,695.7c.58,2.83-1.25,5.59-4.08,6.17-2.83.58-5.59-1.25-6.17-4.08-.58-2.83,1.25-5.59,4.08-6.17,2.83-.58,5.59,1.25,6.17,4.09ZM849.35,675.54c2.83-.58,5.59,1.25,6.17,4.09.58,2.83-1.25,5.59-4.08,6.17-2.83.58-5.59-1.25-6.17-4.08-.58-2.83,1.25-5.6,4.08-6.17ZM844.08,707.06c.55,2.68-1.19,5.3-3.87,5.85-2.68.55-5.3-1.19-5.85-3.87-.55-2.68,1.19-5.3,3.87-5.85,2.68-.55,5.3,1.19,5.85,3.87ZM834.97,687.11c2.68-.55,5.3,1.19,5.85,3.87.55,2.68-1.19,5.3-3.87,5.85-2.68.55-5.3-1.19-5.85-3.87-.55-2.68,1.19-5.3,3.87-5.85ZM829.28,718.44c.51,2.49-1.1,4.91-3.59,5.42-2.49.51-4.91-1.1-5.42-3.59-.51-2.49,1.1-4.91,3.59-5.42,2.49-.51,4.91,1.1,5.42,3.59ZM826.01,702.37c.51,2.49-1.1,4.91-3.59,5.42-2.49.51-4.91-1.1-5.42-3.59-.51-2.49,1.1-4.91,3.59-5.42,2.49-.51,4.91,1.1,5.42,3.59ZM817.33,682.7c2.49-.51,4.91,1.1,5.42,3.59.51,2.49-1.1,4.91-3.59,5.42-2.49.51-4.91-1.1-5.42-3.59-.51-2.49,1.1-4.91,3.59-5.42ZM811.31,713.73c.48,2.34-1.04,4.62-3.37,5.09-2.34.48-4.62-1.03-5.1-3.37-.48-2.34,1.03-4.62,3.37-5.1,2.34-.48,4.62,1.04,5.1,3.37ZM802.94,694.28c2.34-.48,4.62,1.03,5.1,3.37.48,2.34-1.03,4.62-3.37,5.1-2.34.48-4.62-1.04-5.1-3.37-.48-2.34,1.03-4.62,3.37-5.1ZM799.82,741.18c.44,2.17-.96,4.28-3.13,4.72s-4.28-.96-4.72-3.12.96-4.28,3.12-4.72c2.17-.44,4.28.96,4.72,3.13ZM796.55,725.1c.44,2.17-.96,4.28-3.12,4.72-2.17.44-4.28-.96-4.72-3.12-.44-2.17.96-4.28,3.12-4.72s4.28.96,4.72,3.13ZM793.29,709.02c.44,2.17-.96,4.28-3.13,4.72-2.17.44-4.28-.96-4.72-3.12-.44-2.17.96-4.28,3.12-4.72,2.17-.44,4.28.96,4.72,3.13ZM785.29,689.82c2.17-.44,4.28.96,4.72,3.13.44,2.17-.96,4.28-3.13,4.72-2.17.44-4.28-.96-4.72-3.12-.44-2.17.96-4.28,3.12-4.72ZM781.8,736.47c.41,1.99-.88,3.94-2.88,4.34-1.99.41-3.94-.88-4.34-2.88-.41-2,.88-3.94,2.88-4.35s3.94.88,4.35,2.88ZM778.53,720.4c.41,1.99-.88,3.94-2.88,4.34-1.99.41-3.94-.88-4.34-2.88-.41-2,.88-3.94,2.88-4.35,1.99-.41,3.94.88,4.35,2.88ZM770.92,701.44c1.99-.41,3.94.88,4.35,2.88.41,1.99-.88,3.94-2.88,4.35-1.99.41-3.94-.88-4.35-2.88-.41-1.99.88-3.94,2.88-4.35ZM767.09,747.83c.38,1.84-.82,3.65-2.66,4.02-1.85.38-3.65-.82-4.02-2.66-.38-1.85.82-3.65,2.66-4.02,1.85-.38,3.65.82,4.02,2.66ZM763.82,731.76c.38,1.85-.82,3.65-2.66,4.02-1.85.38-3.65-.82-4.02-2.66-.38-1.85.82-3.65,2.66-4.02,1.85-.38,3.65.82,4.02,2.66ZM756.53,713.02c1.85-.38,3.65.82,4.02,2.66.38,1.85-.82,3.65-2.66,4.02-1.85.38-3.65-.82-4.02-2.66-.38-1.85.82-3.65,2.66-4.02ZM752.34,759.2c.34,1.67-.74,3.31-2.41,3.65-1.67.34-3.31-.74-3.65-2.41-.34-1.67.74-3.31,2.41-3.65s3.31.74,3.65,2.42ZM749.07,743.13c.34,1.67-.74,3.31-2.41,3.65-1.67.34-3.31-.74-3.65-2.41-.34-1.67.74-3.31,2.41-3.65,1.67-.34,3.31.74,3.65,2.41ZM742.15,724.64c1.67-.34,3.31.74,3.65,2.41.34,1.67-.74,3.31-2.41,3.65-1.67.34-3.31-.74-3.65-2.41-.34-1.67.74-3.31,2.41-3.65ZM740.9,786.64c.31,1.52-.68,3.01-2.2,3.32-1.53.31-3.02-.68-3.33-2.2-.31-1.53.67-3.02,2.2-3.33,1.53-.31,3.02.67,3.33,2.2ZM737.63,770.57c.31,1.52-.68,3.01-2.2,3.32-1.53.31-3.02-.68-3.33-2.2-.31-1.53.67-3.02,2.2-3.33,1.53-.31,3.02.67,3.33,2.2ZM734.36,754.49c.31,1.53-.67,3.01-2.2,3.32-1.53.31-3.02-.67-3.33-2.2-.31-1.53.67-3.02,2.2-3.33,1.53-.31,3.02.67,3.33,2.2ZM727.77,736.21c1.53-.31,3.02.67,3.33,2.2.31,1.53-.67,3.02-2.2,3.33-1.53.31-3.02-.68-3.33-2.2-.31-1.53.67-3.02,2.2-3.33ZM726.19,798c.28,1.38-.61,2.73-1.99,3.01-1.38.28-2.72-.61-3-1.99-.28-1.38.61-2.73,1.99-3.01,1.38-.28,2.72.61,3,1.99ZM722.92,781.93c.28,1.38-.61,2.72-1.99,3-1.38.28-2.72-.61-3-1.99-.28-1.38.61-2.73,1.99-3.01,1.38-.28,2.72.61,3,1.99ZM719.65,765.85c.28,1.38-.61,2.72-1.99,3-1.38.28-2.72-.61-3-1.99-.28-1.38.61-2.73,1.99-3.01,1.38-.28,2.72.61,3,1.99ZM716.38,749.78c.28,1.38-.61,2.72-1.99,3-1.38.28-2.72-.61-3-1.99-.28-1.38.61-2.73,1.99-3.01,1.38-.28,2.72.61,3,1.99ZM710.11,731.71c1.38-.28,2.72.61,3,1.99.28,1.38-.61,2.72-1.99,3-1.38.28-2.72-.61-3-1.99-.28-1.38.61-2.73,1.99-3.01ZM708.22,793.29c.25,1.23-.54,2.43-1.78,2.68-1.23.25-2.43-.54-2.68-1.77-.25-1.23.54-2.43,1.77-2.68,1.23-.25,2.43.55,2.68,1.78ZM704.95,777.22c.25,1.23-.54,2.43-1.78,2.68-1.23.25-2.43-.54-2.68-1.77-.25-1.23.54-2.43,1.77-2.68,1.23-.25,2.43.54,2.68,1.78ZM701.68,761.14c.25,1.23-.54,2.43-1.78,2.68-1.23.25-2.43-.54-2.68-1.77-.25-1.23.54-2.43,1.77-2.68,1.23-.25,2.43.54,2.68,1.78ZM695.72,743.29c1.23-.25,2.43.54,2.68,1.78.25,1.23-.54,2.43-1.78,2.68-1.23.25-2.43-.54-2.68-1.77-.25-1.23.54-2.43,1.77-2.68ZM693.51,804.65c.22,1.08-.48,2.14-1.56,2.36-1.08.22-2.14-.48-2.36-1.56-.22-1.08.48-2.14,1.56-2.36,1.08-.22,2.14.48,2.36,1.56ZM690.24,788.58c.22,1.08-.48,2.14-1.56,2.36-1.08.22-2.14-.48-2.36-1.56-.22-1.09.48-2.14,1.56-2.36,1.08-.22,2.14.48,2.36,1.56ZM686.97,772.5c.22,1.08-.48,2.14-1.56,2.36-1.08.22-2.14-.48-2.36-1.56-.22-1.09.48-2.14,1.56-2.36,1.08-.22,2.14.48,2.36,1.56ZM681.34,754.86c1.08-.22,2.14.48,2.36,1.56.22,1.08-.48,2.14-1.56,2.36-1.08.22-2.14-.48-2.36-1.56-.22-1.09.48-2.14,1.56-2.36ZM680.03,830.74c.94-.19,1.85.41,2.04,1.35.19.94-.41,1.85-1.35,2.04-.94.19-1.85-.41-2.04-1.35-.19-.94.41-1.85,1.35-2.04ZM676.76,814.66c.94-.19,1.85.41,2.04,1.35.19.94-.41,1.85-1.35,2.04-.94.19-1.85-.41-2.04-1.35s.41-1.85,1.35-2.04ZM673.49,798.59c.94-.19,1.85.41,2.04,1.35.19.93-.41,1.85-1.35,2.04-.94.19-1.85-.41-2.04-1.35-.19-.94.41-1.85,1.35-2.04ZM670.22,782.51c.94-.19,1.85.41,2.04,1.35.19.93-.41,1.85-1.35,2.04-.94.19-1.85-.41-2.04-1.35-.19-.94.41-1.85,1.35-2.04ZM666.95,766.44c.94-.19,1.85.41,2.04,1.35.19.93-.41,1.85-1.35,2.04-.94.19-1.85-.41-2.04-1.35-.19-.94.41-1.85,1.35-2.04ZM665.65,842.32c.79-.16,1.56.35,1.72,1.14.16.79-.35,1.56-1.14,1.72-.79.16-1.55-.35-1.72-1.14-.16-.79.35-1.56,1.14-1.72ZM662.38,826.24c.79-.16,1.56.35,1.72,1.14.16.79-.35,1.55-1.14,1.72-.79.16-1.55-.35-1.72-1.14-.16-.79.35-1.55,1.14-1.72ZM659.11,810.17c.79-.16,1.56.35,1.72,1.14.16.79-.35,1.56-1.14,1.72-.79.16-1.55-.35-1.72-1.14-.16-.79.35-1.55,1.14-1.72ZM655.84,794.09c.79-.16,1.56.35,1.72,1.14.16.79-.35,1.55-1.14,1.71-.79.16-1.56-.35-1.72-1.13-.16-.79.35-1.56,1.14-1.72ZM655.97,870.88c.13.67-.29,1.31-.96,1.45-.66.13-1.31-.29-1.45-.96-.14-.67.29-1.31.96-1.45.66-.13,1.31.29,1.45.96ZM652.57,778.01c.79-.16,1.56.35,1.72,1.14.16.79-.35,1.55-1.14,1.72-.79.16-1.56-.35-1.72-1.14-.16-.79.35-1.56,1.14-1.72ZM651.25,853.85c.66-.13,1.31.29,1.45.96.13.66-.29,1.31-.96,1.45-.66.14-1.31-.29-1.45-.96-.14-.67.29-1.31.96-1.45ZM647.98,837.77c.67-.14,1.31.29,1.45.96.13.66-.29,1.31-.96,1.45-.66.13-1.31-.3-1.45-.96-.14-.67.29-1.31.96-1.45ZM644.71,821.7c.66-.14,1.31.29,1.45.96.14.66-.29,1.31-.96,1.45-.66.13-1.31-.3-1.45-.96-.14-.67.29-1.31.96-1.45ZM641.44,805.62c.66-.14,1.31.29,1.45.96.13.66-.29,1.31-.96,1.45-.66.14-1.31-.29-1.45-.96-.13-.67.29-1.31.96-1.45ZM562.96,831.3s-.1-.02-.11-.07c-.01-.05.02-.1.07-.11.05,0,.1.02.11.07s-.02.1-.07.11ZM566.23,847.38s-.1-.02-.11-.07c0-.05.02-.1.07-.11.05,0,.1.02.11.07,0,.05-.02.1-.07.11ZM569.5,863.45s-.1-.02-.11-.07c-.01-.05.02-.1.07-.11s.1.02.11.07c0,.05-.02.1-.07.11ZM572.77,879.53s-.1-.02-.11-.07c-.01-.05.02-.1.07-.11.05,0,.1.02.11.07,0,.05-.02.1-.07.11ZM576.04,895.6s-.1-.02-.11-.07c-.01-.05.02-.1.07-.11.05-.01.1.02.11.07.01.05-.02.1-.07.11ZM577.44,820.17c-.15.03-.29-.06-.32-.21-.03-.15.07-.29.21-.32.15-.03.29.06.32.21.03.15-.07.29-.21.32ZM580.71,836.25c-.15.03-.29-.06-.32-.21-.03-.15.07-.29.21-.32.15-.03.29.06.32.21.03.15-.07.29-.21.32ZM583.98,852.32c-.15.03-.29-.07-.32-.21-.03-.15.07-.29.21-.32.15-.03.29.06.32.21.03.15-.07.29-.21.32ZM587.25,868.4c-.15.03-.29-.07-.32-.21-.03-.15.07-.29.21-.32.15-.03.29.06.32.21.03.15-.07.29-.21.32ZM590.52,884.47c-.15.03-.29-.07-.32-.21-.03-.15.07-.29.21-.32.15-.03.29.07.32.21.03.15-.07.29-.21.32ZM595.19,825.16c-.27.06-.53-.12-.59-.39-.06-.27.12-.54.39-.59.27-.06.54.12.59.39.06.27-.12.54-.39.59ZM598.46,841.24c-.27.06-.53-.12-.59-.39-.06-.27.12-.54.39-.59.27-.06.54.12.59.39.06.27-.12.54-.39.59ZM601.73,857.31c-.27.06-.53-.12-.59-.39-.06-.27.12-.54.39-.59.27-.06.54.12.59.39.06.27-.12.54-.39.59ZM605,873.39c-.27.06-.53-.12-.59-.39-.06-.27.12-.54.39-.59.27-.06.54.12.59.39.05.27-.12.53-.39.59ZM608.27,889.46c-.27.06-.53-.12-.59-.39-.06-.27.12-.54.39-.59.27-.06.54.12.59.39.06.27-.12.53-.39.59ZM609.68,814.08c-.39.08-.78-.18-.86-.57-.08-.4.17-.78.57-.86.39-.08.78.17.86.57.08.39-.17.78-.57.86ZM612.95,830.15c-.39.08-.78-.17-.86-.57-.08-.39.17-.78.57-.86.39-.08.78.17.86.57.08.39-.17.78-.57.86ZM616.22,846.23c-.4.08-.78-.17-.86-.57s.17-.78.57-.86c.39-.08.78.17.86.57.08.39-.17.78-.57.86ZM619.49,862.3c-.39.08-.78-.18-.86-.57-.08-.39.17-.78.57-.86.39-.08.78.17.86.57.08.39-.18.78-.57.86ZM622.76,878.38c-.39.08-.78-.17-.86-.57-.08-.39.17-.78.57-.86.39-.08.78.17.86.57.08.39-.18.78-.57.86ZM624.17,802.99c-.52.11-1.02-.23-1.13-.74-.11-.52.23-1.02.75-1.13s1.02.23,1.13.75c.1.52-.23,1.02-.75,1.12ZM627.44,819.07c-.52.11-1.02-.23-1.13-.75-.11-.52.23-1.02.75-1.13.52-.11,1.02.23,1.13.75.11.52-.23,1.02-.75,1.13ZM630.71,835.14c-.52.11-1.02-.23-1.13-.75-.11-.52.23-1.02.75-1.13.52-.11,1.02.23,1.13.75.11.52-.23,1.02-.75,1.13ZM633.98,851.22c-.52.11-1.02-.23-1.13-.75-.11-.52.23-1.02.75-1.13.52-.11,1.02.23,1.13.75.11.52-.23,1.02-.75,1.13ZM637.25,867.29c-.52.11-1.02-.23-1.13-.75-.11-.52.23-1.02.75-1.13.52-.11,1.02.23,1.13.75.11.52-.23,1.02-.75,1.13ZM637.21,790.99c-.14-.67.29-1.31.96-1.45.66-.14,1.31.29,1.45.96.13.66-.29,1.31-.96,1.45-.66.13-1.31-.29-1.45-.96Z"/>
    <path class="cls-1" d="M743.09,911.55c-.28-1.38.61-2.73,1.99-3.01,1.05-.21,1.92.37,2.48,1.21,40.98-18.14,76.96-45.11,108.51-76.55.25-.25.49-.48.74-.73,2.49-2.49,4.69-5.24,7.1-7.81-.53.36-1.14.63-1.81.77-2.68.55-5.3-1.19-5.85-3.87-.55-2.68,1.19-5.3,3.87-5.85,2.68-.55,5.3,1.19,5.85,3.87.26,1.26-.02,2.5-.64,3.53,2.79-3,5.58-6,8.27-9.1-1.56-.64-2.82-1.93-3.18-3.71-.58-2.83,1.25-5.6,4.08-6.17,2.32-.47,4.52.71,5.58,2.69.52-.64,1.05-1.28,1.57-1.93,1.19-1.46,2.32-2.96,3.49-4.44-.23-.45-.49-.88-.59-1.4-.61-3,1.33-5.93,4.33-6.54.8-.16,1.58-.12,2.33.05,1.99-2.68,3.99-5.36,5.82-8-1.21-.02-3.21-.04-5.51-.04-.76,1.38-2.03,2.45-3.69,2.79-2.4.49-4.69-.69-5.85-2.7-7.36.16-15.9.56-23.09,1.52.22.41.45.81.55,1.29.55,2.68-1.19,5.3-3.87,5.85-2.68.55-5.3-1.19-5.85-3.87-.11-.52-.06-1.02,0-1.52-4.5,1.09-12.4,3.25-21.06,7.04-.68.3-1.35.65-2.03.97-.36,1.61-1.62,2.95-3.34,3.3-.93.19-1.82,0-2.62-.37-3.1,1.64-6.19,3.48-9.27,5.45.22.37.42.76.51,1.2.44,2.17-.96,4.28-3.13,4.72-1.54.31-3.02-.33-3.93-1.49-2.82,2.01-5.68,4.16-8.58,6.49.41.47.75,1,.88,1.65.41,1.99-.88,3.94-2.88,4.35-1.41.29-2.78-.3-3.61-1.37-2.83,2.4-5.72,4.94-8.71,7.66.13.27.42.41.49.72.38,1.85-.82,3.65-2.66,4.02-.88.18-1.73-.04-2.44-.48-1.8,1.69-3.59,3.36-5.47,5.16-1.53,1.48-2.98,2.81-4.49,4.24-.35.99-1,1.84-2.11,2.07-.02,0-.04-.02-.06-.01-32.25,30.41-58.11,50-87.31,63.44.72-.05,1.4.38,1.54,1.1.16.79-.35,1.55-1.14,1.71-.79.16-1.56-.35-1.72-1.13-.11-.52.14-.96.51-1.29-24.58,11.2-51.64,18.16-87.04,23.77,57.65,8.2,108.36-.16,153.14-19.11-.02-.06-.09-.09-.11-.16ZM871.24,788.07c2.83-.58,5.59,1.25,6.17,4.09.58,2.83-1.25,5.59-4.08,6.17-2.83.58-5.59-1.25-6.17-4.08-.58-2.83,1.25-5.59,4.08-6.17ZM833.09,847.43c-2.34.48-4.62-1.04-5.1-3.37-.48-2.34,1.03-4.62,3.37-5.1,2.34-.48,4.62,1.03,5.1,3.37.48,2.34-1.03,4.62-3.37,5.1ZM856.85,799.64c2.68-.55,5.3,1.19,5.85,3.87.55,2.68-1.19,5.3-3.87,5.85-2.68.55-5.3-1.19-5.85-3.87-.55-2.68,1.19-5.3,3.87-5.85ZM851.17,830.97c.51,2.49-1.1,4.91-3.59,5.42-2.49.51-4.91-1.1-5.42-3.59-.51-2.49,1.1-4.91,3.59-5.42,2.49-.51,4.91,1.1,5.42,3.59ZM847.9,814.89c.51,2.49-1.1,4.91-3.59,5.42-2.49.51-4.91-1.1-5.42-3.59-.51-2.49,1.1-4.91,3.59-5.42,2.49-.51,4.91,1.1,5.42,3.59ZM839.21,795.23c2.49-.51,4.91,1.1,5.42,3.59.51,2.49-1.1,4.91-3.59,5.42-2.49.51-4.91-1.1-5.42-3.59-.51-2.49,1.1-4.91,3.59-5.42ZM833.19,826.26c.48,2.34-1.03,4.62-3.37,5.1-2.34.48-4.62-1.04-5.1-3.37-.48-2.34,1.03-4.62,3.37-5.1,2.34-.48,4.62,1.03,5.1,3.37ZM824.83,806.81c2.34-.48,4.62,1.03,5.1,3.37.48,2.34-1.03,4.62-3.37,5.1-2.34.48-4.62-1.04-5.1-3.37-.48-2.34,1.03-4.62,3.37-5.1ZM821.71,853.7c.44,2.17-.96,4.28-3.12,4.72-2.17.44-4.28-.96-4.72-3.12-.44-2.17.96-4.28,3.12-4.72,2.17-.44,4.28.96,4.72,3.13ZM818.44,837.63c.44,2.17-.96,4.28-3.12,4.72-2.17.44-4.28-.96-4.72-3.12-.44-2.17.96-4.28,3.12-4.72,2.17-.44,4.28.96,4.72,3.13ZM810.45,818.43c2.17-.44,4.28.96,4.72,3.13.44,2.17-.96,4.28-3.13,4.72-2.17.44-4.28-.96-4.72-3.12-.44-2.17.96-4.28,3.12-4.72ZM806.96,865.08c.4,1.99-.88,3.94-2.88,4.34-1.99.41-3.94-.88-4.34-2.88-.41-2,.88-3.94,2.88-4.35,1.99-.41,3.94.88,4.35,2.88ZM803.69,849c.41,1.99-.88,3.94-2.88,4.35-1.99.4-3.94-.88-4.35-2.88-.41-2,.88-3.94,2.88-4.35,1.99-.41,3.94.88,4.35,2.88ZM796.07,830.05c1.99-.41,3.94.88,4.35,2.88.41,1.99-.88,3.94-2.88,4.35-1.99.4-3.94-.88-4.35-2.88-.41-2,.88-3.94,2.88-4.35ZM792.25,876.44c.38,1.84-.82,3.65-2.66,4.02-1.85.38-3.65-.82-4.02-2.66-.38-1.85.82-3.65,2.66-4.02,1.85-.38,3.65.82,4.02,2.66ZM788.98,860.36c.38,1.84-.82,3.65-2.66,4.02-1.85.38-3.65-.82-4.02-2.66-.38-1.85.82-3.65,2.66-4.02,1.85-.38,3.65.82,4.02,2.66ZM781.69,841.62c1.85-.38,3.65.82,4.02,2.66.38,1.85-.82,3.65-2.66,4.02-1.85.38-3.65-.82-4.02-2.66-.38-1.85.82-3.65,2.66-4.02ZM777.5,887.81c.34,1.67-.74,3.31-2.41,3.65-1.67.34-3.31-.74-3.65-2.41-.34-1.67.74-3.31,2.41-3.65,1.67-.34,3.31.74,3.65,2.42ZM774.23,871.73c.34,1.67-.74,3.31-2.41,3.65-1.67.34-3.31-.74-3.65-2.41-.34-1.67.74-3.31,2.41-3.65,1.67-.34,3.31.74,3.65,2.42ZM767.31,853.24c1.67-.34,3.31.74,3.65,2.41.34,1.67-.74,3.31-2.41,3.65-1.67.34-3.31-.74-3.65-2.41-.34-1.67.74-3.31,2.41-3.65ZM762.79,899.17c.31,1.53-.68,3.01-2.2,3.32-1.53.31-3.02-.67-3.33-2.2-.31-1.53.67-3.02,2.2-3.33,1.53-.31,3.02.67,3.33,2.2ZM759.52,883.1c.31,1.53-.67,3.02-2.2,3.33-1.53.31-3.02-.68-3.33-2.2-.31-1.53.67-3.02,2.2-3.33,1.53-.31,3.02.67,3.33,2.2ZM752.92,864.82c1.53-.31,3.02.67,3.33,2.2.31,1.52-.67,3.02-2.2,3.33-1.53.31-3.02-.68-3.33-2.2-.31-1.53.67-3.02,2.2-3.33ZM631.57,926.61c-.4.08-.78-.17-.86-.57-.08-.39.17-.78.57-.86.39-.08.78.17.86.57.08.39-.17.78-.57.86ZM649.32,931.6c-.52.11-1.02-.23-1.13-.74-.11-.52.23-1.02.75-1.13.52-.11,1.02.23,1.13.75.1.52-.23,1.02-.75,1.12ZM663.82,920.56c-.66.13-1.31-.29-1.45-.96-.14-.67.29-1.31.96-1.45.66-.13,1.31.29,1.45.96.13.66-.29,1.31-.96,1.45ZM681.57,925.55c-.79.16-1.55-.35-1.71-1.13-.16-.79.35-1.56,1.14-1.72.79-.16,1.56.35,1.72,1.14.16.79-.35,1.55-1.14,1.71ZM696.07,914.51c-.94.19-1.85-.41-2.04-1.35-.19-.94.41-1.85,1.35-2.04.94-.19,1.85.41,2.04,1.35.19.93-.41,1.85-1.35,2.04ZM708.2,901.91c-.22-1.09.48-2.14,1.56-2.36,1.08-.22,2.14.48,2.36,1.56.22,1.08-.48,2.14-1.56,2.36-1.08.22-2.14-.48-2.36-1.56ZM713.83,919.54c-1.08.22-2.14-.48-2.36-1.56-.22-1.09.48-2.14,1.56-2.36,1.08-.22,2.14.48,2.36,1.56.22,1.08-.48,2.14-1.56,2.36ZM722.38,890.65c-.25-1.23.54-2.43,1.77-2.68,1.23-.25,2.43.54,2.68,1.78.25,1.23-.54,2.43-1.78,2.68-1.23.25-2.43-.54-2.68-1.77ZM728.33,908.5c-1.23.25-2.43-.54-2.68-1.77-.25-1.23.54-2.43,1.77-2.68,1.23-.25,2.43.55,2.68,1.78.25,1.23-.54,2.43-1.78,2.68ZM736.55,879.4c-.28-1.38.61-2.73,1.99-3.01,1.38-.28,2.72.61,3,1.99.28,1.38-.61,2.72-1.99,3-1.38.28-2.72-.61-3-1.99ZM739.82,895.47c-.28-1.38.61-2.73,1.99-3.01,1.38-.28,2.72.61,3,1.99.28,1.38-.61,2.72-1.99,3-1.38.28-2.72-.61-3-1.99Z"/>
  </g>
</svg>